<svg width="25" height="25" viewBox="0 0 25 25" fill="none" xmlns="http://www.w3.org/2000/svg">
<path d="M12.5 1.5625C6.46484 1.5625 1.5625 6.46484 1.5625 12.5C1.5625 18.5352 6.46484 23.4375 12.5 23.4375C18.5352 23.4375 23.4375 18.5352 23.4375 12.5C23.4375 6.46484 18.5352 1.5625 12.5 1.5625ZM12.5 21.875C7.32422 21.875 3.125 17.6758 3.125 12.5C3.125 7.32422 7.32422 3.125 12.5 3.125C17.6758 3.125 21.875 7.32422 21.875 12.5C21.875 17.6758 17.6758 21.875 12.5 21.875ZM16.3672 6.97266L10.8398 12.5L16.3672 18.0273L15.2734 19.1406L8.63281 12.5L15.2734 5.85938L16.3672 6.97266Z" fill="url(#paint0_linear_761_18613)"/>
<defs>
<linearGradient id="paint0_linear_761_18613" x1="12.5" y1="1.5625" x2="12.5" y2="23.4375" gradientUnits="userSpaceOnUse">
<stop stop-color="#E325DC"/>
<stop offset="1" stop-color="white"/>
</linearGradient>
</defs>
</svg>
