<svg width="30" height="30" viewBox="0 0 30 30" fill="none" xmlns="http://www.w3.org/2000/svg">
<path d="M15.1875 1.40625C8.90625 1.40625 3.75 6.5625 3.75 12.9375C3.75 14.3438 4.21875 15.8438 4.96875 17.5313C5.8125 19.2188 7.03125 21 8.4375 22.875C9.46875 24.0938 10.5937 25.3125 11.625 26.4375C12 26.8125 12.375 27.1875 12.6562 27.4688C12.8437 27.6563 13.0312 27.75 13.0312 27.8438C14.1562 28.9688 16.0312 28.9688 17.0625 27.8438C17.1562 27.75 17.25 27.6563 17.4375 27.4688C17.7187 27.1875 18.0937 26.8125 18.4687 26.4375C19.5937 25.3125 20.625 24.0938 21.6562 22.875C23.1562 21.0938 24.375 19.2188 25.125 17.5313C25.9687 15.8438 26.3437 14.3438 26.3437 12.9375C26.625 6.5625 21.4687 1.40625 15.1875 1.40625ZM24.0937 16.875C23.3437 18.4688 22.2187 20.1563 20.7187 21.9375C19.6875 23.1563 18.6562 24.375 17.625 25.4063C17.25 25.7813 16.875 26.1563 16.5937 26.4375C16.4062 26.625 16.3125 26.7188 16.2187 26.8125C15.6562 27.375 14.7187 27.375 14.1562 26.8125C14.0625 26.7188 13.9687 26.625 13.7812 26.4375C13.5 26.1563 13.125 25.7813 12.75 25.4063C11.7187 24.2813 10.5937 23.1563 9.65625 21.9375C8.25 20.1563 7.125 18.4688 6.28125 16.875C5.53125 15.375 5.15625 14.0625 5.15625 12.9375C5.15625 7.3125 9.65625 2.8125 15.1875 2.8125C20.7187 2.8125 25.2187 7.3125 25.2187 12.9375C25.2187 14.0625 24.8437 15.375 24.0937 16.875Z" fill="url(#paint0_linear_517_9641)"/>
<path d="M15.1875 7.6875C12.375 7.6875 10.2188 9.9375 10.2188 12.75C10.2188 15.5625 12.4688 17.8125 15.1875 17.8125C17.9063 17.8125 20.1562 15.5625 20.1562 12.75C20.1562 9.9375 18 7.6875 15.1875 7.6875ZM15.1875 16.3125C13.2188 16.3125 11.625 14.7187 11.625 12.6562C11.625 10.5937 13.2188 9 15.1875 9C17.1563 9 18.75 10.5937 18.75 12.6562C18.75 14.7187 17.1563 16.3125 15.1875 16.3125Z" fill="url(#paint1_linear_517_9641)"/>
<defs>
<linearGradient id="paint0_linear_517_9641" x1="15.0524" y1="1.40625" x2="15.0524" y2="28.6875" gradientUnits="userSpaceOnUse">
<stop stop-color="#E325DC"/>
<stop offset="1" stop-color="white"/>
</linearGradient>
<linearGradient id="paint1_linear_517_9641" x1="15.1875" y1="7.6875" x2="15.1875" y2="17.8125" gradientUnits="userSpaceOnUse">
<stop stop-color="#E325DC"/>
<stop offset="1" stop-color="white"/>
</linearGradient>
</defs>
</svg>
