<svg width="30" height="30" viewBox="0 0 30 30" fill="none" xmlns="http://www.w3.org/2000/svg">
<path d="M20.6763 17.7209C20.383 17.4283 19.9856 17.264 19.5714 17.264C19.1571 17.264 18.7598 17.4283 18.4665 17.7209L17.3616 18.8258C16.7366 19.4508 14.7128 18.8287 12.9423 17.058C11.1718 15.2873 10.5485 13.2645 11.1745 12.6387L11.1759 12.6373L12.2794 11.5338C12.572 11.2405 12.7363 10.8432 12.7363 10.4289C12.7363 10.0147 12.572 9.61732 12.2794 9.32404L7.41788 4.46271C7.12463 4.17016 6.72731 4.00586 6.31309 4.00586C5.89887 4.00586 5.50155 4.17016 5.20831 4.46271L4.10342 5.56759C3.28702 6.384 2.78975 7.45783 2.6251 8.75939C2.47237 9.96662 2.61319 11.3205 3.04346 12.7828C3.90655 15.7203 5.85303 18.8086 8.52276 21.4776C11.1925 24.1465 14.2802 26.0938 17.2167 26.9568C18.2985 27.275 19.3206 27.435 20.2679 27.435C20.5932 27.4355 20.9182 27.4155 21.2409 27.3752C22.5425 27.2106 23.6163 26.7133 24.4327 25.8969L25.5376 24.792C25.8302 24.4988 25.9945 24.1014 25.9945 23.6872C25.9945 23.273 25.8302 22.8757 25.5376 22.5824L20.6763 17.7209ZM24.6536 23.9082L23.5489 25.0131C22.3015 26.2604 20.178 26.5248 17.5694 25.7576C14.83 24.952 11.9312 23.118 9.40674 20.5936C6.88233 18.0692 5.04834 15.1703 4.24268 12.4309C3.47549 9.82248 3.73995 7.69884 4.98721 6.45138L6.09209 5.34669C6.12111 5.31767 6.15557 5.29464 6.19349 5.27893C6.2314 5.26322 6.27205 5.25514 6.31309 5.25514C6.35413 5.25514 6.39478 5.26322 6.4327 5.27893C6.47061 5.29464 6.50507 5.31767 6.53409 5.34669L11.3954 10.208C11.4244 10.237 11.4475 10.2715 11.4632 10.3094C11.4789 10.3473 11.487 10.388 11.487 10.429C11.487 10.4701 11.4789 10.5107 11.4632 10.5486C11.4475 10.5865 11.4244 10.621 11.3954 10.65L10.2905 11.7547C9.64229 12.4024 9.51202 13.442 9.9251 14.6799C10.2892 15.7719 11.0468 16.9303 12.0583 17.9416C13.0698 18.9529 14.2284 19.7108 15.32 20.0748C15.795 20.2332 16.2405 20.3115 16.646 20.3115C17.2974 20.3115 17.8456 20.109 18.2452 19.7094L19.3499 18.6045C19.3789 18.5755 19.4134 18.5525 19.4513 18.5367C19.4892 18.521 19.5299 18.513 19.5709 18.513C19.6119 18.513 19.6526 18.521 19.6905 18.5367C19.7284 18.5525 19.7629 18.5755 19.7919 18.6045L24.6532 23.4658C24.6823 23.4948 24.7054 23.5293 24.7212 23.5672C24.737 23.6052 24.7451 23.6459 24.7452 23.6869C24.7452 23.728 24.7371 23.7687 24.7214 23.8067C24.7057 23.8447 24.6827 23.8792 24.6536 23.9082ZM16.8753 6.87501C16.8753 6.79294 16.8915 6.71167 16.9229 6.63584C16.9543 6.56001 17.0003 6.49111 17.0584 6.43307C17.1164 6.37504 17.1853 6.329 17.2611 6.29759C17.337 6.26618 17.4182 6.25001 17.5003 6.25001C18.3211 6.25001 19.1338 6.41168 19.8921 6.72577C20.6504 7.03986 21.3393 7.50023 21.9197 8.0806C22.5001 8.66096 22.9605 9.34996 23.2745 10.1082C23.5886 10.8665 23.7503 11.6793 23.7503 12.5C23.7503 12.6658 23.6844 12.8247 23.5672 12.942C23.45 13.0592 23.2911 13.125 23.1253 13.125C22.9595 13.125 22.8006 13.0592 22.6834 12.942C22.5661 12.8247 22.5003 12.6658 22.5003 12.5C22.5003 9.74298 20.2573 7.50001 17.5003 7.50001C17.3345 7.50001 17.1756 7.43417 17.0584 7.31696C16.9411 7.19975 16.8753 7.04077 16.8753 6.87501ZM16.8753 10.625C16.8753 10.5429 16.8915 10.4617 16.9229 10.3858C16.9543 10.31 17.0003 10.2411 17.0584 10.1831C17.1164 10.125 17.1853 10.079 17.2611 10.0476C17.337 10.0162 17.4182 10 17.5003 10C18.1631 10.0007 18.7986 10.2644 19.2673 10.733C19.7359 11.2017 19.9996 11.8372 20.0003 12.5C20.0003 12.6658 19.9344 12.8247 19.8172 12.942C19.7 13.0592 19.5411 13.125 19.3753 13.125C19.2095 13.125 19.0506 13.0592 18.9334 12.942C18.8161 12.8247 18.7503 12.6658 18.7503 12.5C18.7499 12.1686 18.6181 11.8509 18.3838 11.6165C18.1494 11.3822 17.8317 11.2504 17.5003 11.25C17.3345 11.25 17.1756 11.1842 17.0584 11.067C16.9411 10.9497 16.8753 10.7908 16.8753 10.625Z" fill="url(#paint0_linear_517_9644)"/>
<defs>
<linearGradient id="paint0_linear_517_9644" x1="14" y1="-1.07532e-07" x2="14" y2="30.5" gradientUnits="userSpaceOnUse">
<stop stop-color="#E325DC"/>
<stop offset="1" stop-color="white"/>
</linearGradient>
</defs>
</svg>
