<svg width="30" height="30" viewBox="0 0 30 30" fill="none" xmlns="http://www.w3.org/2000/svg">
<path d="M24.5788 6.875H5C4.89375 6.875 4.79 6.88813 4.69063 6.91375L14.1737 16.3963C14.291 16.5134 14.4499 16.5792 14.6156 16.5792C14.7814 16.5792 14.9403 16.5134 15.0575 16.3963L24.5788 6.875ZM25.9306 7.29062L18.2931 14.9281L25.9963 22.6306C26.1556 22.4206 26.25 22.1588 26.25 21.875V8.125C26.25 7.80438 26.1294 7.5125 25.9313 7.29062H25.9306ZM24.7225 23.125L17.41 15.8119L15.9412 17.2806C15.7671 17.4548 15.5604 17.5929 15.3329 17.6872C15.1054 17.7814 14.8616 17.8299 14.6153 17.8299C14.3691 17.8299 14.1252 17.7814 13.8977 17.6872C13.6702 17.5929 13.4635 17.4548 13.2894 17.2806L11.8212 15.8119L4.58125 23.0531C4.7125 23.0994 4.85313 23.125 5.00063 23.125H24.7231H24.7225ZM3.76937 22.0963L10.9375 14.9275L3.79625 7.7875C3.76552 7.89737 3.74996 8.01092 3.75 8.125V21.875C3.75 21.95 3.75625 22.0244 3.76937 22.0963ZM5 5.625H25C25.3283 5.625 25.6534 5.68966 25.9567 5.8153C26.26 5.94094 26.5356 6.12509 26.7678 6.35723C26.9999 6.58938 27.1841 6.86498 27.3097 7.16829C27.4353 7.47161 27.5 7.7967 27.5 8.125V21.875C27.5 22.2033 27.4353 22.5284 27.3097 22.8317C27.1841 23.135 26.9999 23.4106 26.7678 23.6428C26.5356 23.8749 26.26 24.0591 25.9567 24.1847C25.6534 24.3103 25.3283 24.375 25 24.375H5C4.6717 24.375 4.34661 24.3103 4.04329 24.1847C3.73998 24.0591 3.46438 23.8749 3.23223 23.6428C3.00009 23.4106 2.81594 23.135 2.6903 22.8317C2.56466 22.5284 2.5 22.2033 2.5 21.875V8.125C2.5 7.7967 2.56466 7.47161 2.6903 7.16829C2.81594 6.86498 3.00009 6.58938 3.23223 6.35723C3.46438 6.12509 3.73998 5.94094 4.04329 5.8153C4.34661 5.68966 4.6717 5.625 5 5.625V5.625Z" fill="url(#paint0_linear_517_9648)"/>
<defs>
<linearGradient id="paint0_linear_517_9648" x1="15" y1="6" x2="15" y2="24" gradientUnits="userSpaceOnUse">
<stop stop-color="#E325DC"/>
<stop offset="1" stop-color="white"/>
</linearGradient>
</defs>
</svg>
