<svg width="9" height="9" viewBox="0 0 9 9" fill="none" xmlns="http://www.w3.org/2000/svg">
<g clip-path="url(#clip0_1143_16022)">
<path d="M0.564893 2.2741C0.791896 2.0471 1.05938 1.94471 1.36813 1.94471H2.35791L2.58491 1.34703C2.64682 1.20258 2.75 1.07876 2.89367 0.976373C3.03813 0.873189 3.20243 0.811279 3.34689 0.811279H5.61375C5.77885 0.811279 5.92251 0.873189 6.06696 0.976373C6.21142 1.07956 6.3146 1.20338 6.37572 1.34703L6.62336 1.94471H7.63298C7.94174 1.94471 8.21001 2.04789 8.43622 2.2741C8.66323 2.50111 8.76562 2.76859 8.76562 3.07815V7.05548C8.76562 7.36424 8.66244 7.63251 8.43623 7.85952C8.20922 8.08652 7.94174 8.18891 7.63299 8.18891H1.36893C1.06017 8.18891 0.791905 8.08572 0.565701 7.85952C0.338689 7.63251 0.236296 7.36503 0.236296 7.05548V3.07815C0.235505 2.76859 0.337897 2.50111 0.564901 2.2741H0.564893ZM4.50095 6.86975C5.53121 6.86975 6.37651 6.02522 6.37651 4.99419C6.37651 3.96393 5.532 3.11862 4.50095 3.11862C3.46991 3.11862 2.62539 3.96314 2.62539 4.99419C2.62539 6.02523 3.47071 6.86975 4.50095 6.86975Z" fill="#BD27B7"/>
<path d="M4.50055 3.7583C5.20141 3.7583 5.75781 4.3147 5.75781 5.01556C5.75781 5.71642 5.20141 6.27281 4.50055 6.27281C3.7997 6.27281 3.24331 5.71642 3.24331 5.01556C3.24331 4.3147 3.7997 3.7583 4.50055 3.7583Z" fill="#BD27B7"/>
</g>
<defs>
<clipPath id="clip0_1143_16022">
<rect width="9" height="9" fill="white" transform="matrix(-1 0 0 1 9 0)"/>
</clipPath>
</defs>
</svg>
