<svg width="16" height="12" viewBox="0 0 16 12" fill="none" xmlns="http://www.w3.org/2000/svg">
<path fill-rule="evenodd" clip-rule="evenodd" d="M15.0024 2.0051C15.4783 2.0051 15.863 1.58621 15.863 1.06773C15.863 0.550261 15.4783 0.130353 15.0013 0.130371H4.79917C4.32222 0.130371 3.9375 0.550279 3.9375 1.06773C3.9375 1.58512 4.32325 2.0051 4.79917 2.0051H15.0024ZM0.535906 1.80844C0.353959 1.62649 0.248047 1.37072 0.248047 1.11339C0.248047 0.856053 0.353977 0.600285 0.535906 0.41823C0.71787 0.236283 0.973621 0.130371 1.23097 0.130371C1.4884 0.130371 1.74416 0.236283 1.92611 0.41823C2.10806 0.600285 2.21399 0.856035 2.21399 1.11339C2.21399 1.37072 2.10806 1.62649 1.92611 1.80844C1.74416 1.99038 1.4884 2.09631 1.23097 2.09631C0.973639 2.09631 0.71787 1.99038 0.535906 1.80844ZM0.411229 6.68097C0.229121 6.49879 0.123047 6.24277 0.123047 5.98513C0.123047 5.72753 0.229121 5.47147 0.411229 5.28934C0.593428 5.10716 0.849412 5.00116 1.10709 5.00116C1.36467 5.00116 1.62075 5.10716 1.80286 5.28934C1.98504 5.47147 2.09106 5.72754 2.09106 5.98513C2.09106 6.24277 1.98504 6.49879 1.80286 6.68097C1.62075 6.86308 1.36467 6.96917 1.10709 6.96917C0.84943 6.96917 0.593446 6.86308 0.411229 6.68097ZM0.123047 10.8814C0.123047 11.1391 0.229121 11.3951 0.411229 11.5773C0.593446 11.7595 0.84943 11.8655 1.10709 11.8655C1.36467 11.8655 1.62075 11.7595 1.80286 11.5773C1.98504 11.3951 2.09106 11.1391 2.09106 10.8814C2.09106 10.6239 1.98504 10.3679 1.80286 10.1857C1.62075 10.0035 1.36467 9.89746 1.10709 9.89746C0.849412 9.89746 0.593428 10.0035 0.411229 10.1857C0.229121 10.3679 0.123047 10.6239 0.123047 10.8814ZM15.863 5.94019C15.863 6.45756 15.4783 6.87755 15.0024 6.87755H4.79917C4.32325 6.87755 3.9375 6.45754 3.9375 5.94019C3.9375 5.42169 4.32222 5.00281 4.79917 5.00281H15.0013C15.4783 5.00178 15.863 5.42169 15.863 5.94019ZM15.0024 11.7722C15.4783 11.7722 15.863 11.3522 15.863 10.8338C15.863 10.3174 15.4783 9.89746 15.0013 9.89746H4.79917C4.32222 9.89746 3.9375 10.3174 3.9375 10.8338C3.9375 11.3522 4.32325 11.7722 4.79917 11.7722H15.0024Z" fill="url(#paint0_linear_761_17142)"/>
<defs>
<linearGradient id="paint0_linear_761_17142" x1="7.99302" y1="0.130371" x2="7.99302" y2="11.8655" gradientUnits="userSpaceOnUse">
<stop stop-color="#E325DC"/>
<stop offset="1" stop-color="white"/>
</linearGradient>
</defs>
</svg>
