<svg width="196" height="196" viewBox="0 0 196 196" fill="none" xmlns="http://www.w3.org/2000/svg">
<g filter="url(#filter0_d_761_17601)">
<path fill-rule="evenodd" clip-rule="evenodd" d="M109.836 21.1194C117.109 20.0353 124.555 20.3907 131.716 22.1862L131.062 24.7905L131.716 22.1862C141.178 24.5589 150.14 29.4465 157.535 36.8412C164.929 44.236 169.817 53.1978 172.19 62.6607C173.985 69.8213 174.341 77.2668 173.257 84.5395C173.038 86.0061 171.672 87.0178 170.205 86.7992C168.738 86.5805 167.727 85.2143 167.945 83.7477C168.926 77.1714 168.604 70.4388 166.981 63.9667L166.981 63.9666C164.838 55.4204 160.426 47.327 153.737 40.6383C147.049 33.9497 138.955 29.5377 130.409 27.3948C123.937 25.7719 117.204 25.4503 110.628 26.4306C109.161 26.6492 107.795 25.6375 107.577 24.1708C107.358 22.7042 108.37 21.338 109.836 21.1194Z" fill="white"/>
<path d="M131.959 21.2162C131.958 21.2161 131.958 21.216 131.958 21.2159C124.669 19.3885 117.091 19.0269 109.689 20.1303C107.676 20.4304 106.287 22.3054 106.588 24.3182C106.888 26.3311 108.763 27.7197 110.775 27.4196C117.222 26.4587 123.822 26.774 130.166 28.3648C138.541 30.4649 146.473 34.7883 153.03 41.3454C159.588 47.9026 163.911 55.8344 166.011 64.2098L166.011 64.21C167.602 70.5538 167.917 77.1536 166.956 83.6003C166.656 85.6131 168.045 87.4882 170.058 87.7882C172.071 88.0883 173.946 86.6998 174.246 84.6869C175.349 77.2846 174.987 69.7062 173.16 62.4175C170.744 52.7839 165.768 43.6604 158.242 36.1341L157.589 36.7868L158.242 36.1341C150.715 28.6079 141.592 23.6318 131.959 21.2162Z" stroke="#E325DC" stroke-width="2" stroke-linecap="round" stroke-linejoin="round"/>
</g>
<g filter="url(#filter1_d_761_17601)">
<mask id="path-3-outside-1_761_17601" maskUnits="userSpaceOnUse" x="106.061" y="48.0479" width="39" height="38" fill="black">
<rect fill="white" x="106.061" y="48.0479" width="39" height="38"/>
<path fill-rule="evenodd" clip-rule="evenodd" d="M111.35 50.3461C119.573 49.1203 128.262 51.673 134.6 58.01L134.6 58.0101C140.937 64.3474 143.489 73.0371 142.264 81.2602C142.045 82.7268 140.679 83.7385 139.212 83.5199C137.746 83.3013 136.734 81.9351 136.952 80.4684C137.938 73.856 135.886 66.8903 130.803 61.8072C130.803 61.8072 130.803 61.8072 130.803 61.8072M130.803 61.8072C125.719 56.724 118.754 54.6716 112.142 55.6573C110.675 55.8759 109.309 54.8642 109.09 53.3976C108.872 51.9309 109.883 50.5647 111.35 50.3461"/>
</mask>
<path fill-rule="evenodd" clip-rule="evenodd" d="M111.35 50.3461C119.573 49.1203 128.262 51.673 134.6 58.01L134.6 58.0101C140.937 64.3474 143.489 73.0371 142.264 81.2602C142.045 82.7268 140.679 83.7385 139.212 83.5199C137.746 83.3013 136.734 81.9351 136.952 80.4684C137.938 73.856 135.886 66.8903 130.803 61.8072C130.803 61.8072 130.803 61.8072 130.803 61.8072M130.803 61.8072C125.719 56.724 118.754 54.6716 112.142 55.6573C110.675 55.8759 109.309 54.8642 109.09 53.3976C108.872 51.9309 109.883 50.5647 111.35 50.3461" fill="white"/>
<path d="M111.858 49.4845C111.382 49.2042 110.769 49.3626 110.488 49.8385C110.208 50.3143 110.366 50.9273 110.842 51.2077L111.858 49.4845ZM130.295 62.6688C130.771 62.9491 131.384 62.7906 131.665 62.3148C131.945 61.839 131.786 61.2259 131.311 60.9456L130.295 62.6688ZM131.311 60.9456L111.858 49.4845L110.842 51.2077L130.295 62.6688L131.311 60.9456ZM110.842 51.2077L130.295 62.6688L131.311 60.9456L111.858 49.4845L110.842 51.2077ZM134.6 58.01L133.186 59.4243C133.19 59.4287 133.195 59.4331 133.199 59.4374L134.6 58.01ZM111.35 50.3461L111.645 52.3242H111.645L111.35 50.3461ZM134.6 58.0101L136.014 56.5959C136.01 56.5915 136.005 56.5871 136.001 56.5827L134.6 58.0101ZM142.264 81.2602L144.242 81.5551L142.264 81.2602ZM139.212 83.5199L138.917 85.498L139.212 83.5199ZM136.952 80.4684L138.931 80.7633V80.7633L136.952 80.4684ZM130.803 61.8072L132.217 60.393C132.211 60.3864 132.204 60.3798 132.197 60.3733L130.803 61.8072ZM130.803 61.8072L129.389 63.2214C129.395 63.2281 129.402 63.2346 129.409 63.2412L130.803 61.8072ZM112.142 55.6573L112.437 57.6354H112.437L112.142 55.6573ZM109.09 53.3976L107.112 53.6925L107.112 53.6925L109.09 53.3976ZM136.014 56.5958C129.209 49.7915 119.878 47.0527 111.055 48.368L111.645 52.3242C119.268 51.1878 127.315 53.5544 133.186 59.4243L136.014 56.5958ZM136.001 56.5827L136.001 56.5827L133.199 59.4374L133.199 59.4375L136.001 56.5827ZM144.242 81.5551C145.557 72.7324 142.819 63.4004 136.014 56.5959L133.186 59.4243C139.056 65.2943 141.422 73.3418 140.286 80.9653L144.242 81.5551ZM138.917 85.498C141.476 85.8795 143.86 84.1142 144.242 81.5551L140.286 80.9653C140.23 81.3394 139.881 81.5975 139.507 81.5417L138.917 85.498ZM134.974 80.1736C134.593 82.7327 136.358 85.1165 138.917 85.498L139.507 81.5417C139.133 81.486 138.875 81.1375 138.931 80.7633L134.974 80.1736ZM129.389 63.2214C134.005 67.8375 135.871 74.1612 134.974 80.1736L138.931 80.7633C140.006 73.5507 137.767 65.943 132.217 60.393L129.389 63.2214ZM129.409 63.2412C129.405 63.2379 129.403 63.2353 129.401 63.2337C129.4 63.2323 129.399 63.2311 129.399 63.2313C129.399 63.2313 129.399 63.2313 129.399 63.2313C129.399 63.2313 129.399 63.2313 129.399 63.2313C129.399 63.2313 129.399 63.2313 129.399 63.2313C129.399 63.2313 129.399 63.2313 129.399 63.2313C129.399 63.2313 129.399 63.2314 129.399 63.2314C129.399 63.2315 129.399 63.2317 129.399 63.2319C129.4 63.2323 129.4 63.233 129.401 63.2338C129.403 63.2353 129.406 63.238 129.409 63.2412L132.197 60.3733C132.201 60.3765 132.203 60.3791 132.205 60.3807C132.206 60.3821 132.208 60.3834 132.207 60.3831C132.207 60.3831 132.207 60.3831 132.207 60.3831C132.207 60.3831 132.207 60.3831 132.207 60.3831C132.207 60.3831 132.207 60.3831 132.207 60.3831C132.207 60.3831 132.207 60.3831 132.207 60.3831C132.207 60.3831 132.207 60.383 132.207 60.383C132.207 60.3829 132.207 60.3827 132.207 60.3825C132.206 60.3821 132.206 60.3815 132.205 60.3806C132.203 60.3791 132.2 60.3764 132.197 60.3732L129.409 63.2412ZM112.437 57.6354C118.448 56.7392 124.772 58.6051 129.389 63.2214L132.217 60.3929C126.667 54.843 119.059 52.6039 111.847 53.6791L112.437 57.6354ZM107.112 53.6925C107.494 56.2516 109.877 58.0169 112.437 57.6354L111.847 53.6791C111.473 53.7349 111.124 53.4768 111.068 53.1027L107.112 53.6925ZM111.055 48.368C108.496 48.7495 106.731 51.1333 107.112 53.6925L111.068 53.1027C111.013 52.7285 111.271 52.38 111.645 52.3242L111.055 48.368Z" fill="#E325DC" mask="url(#path-3-outside-1_761_17601)"/>
</g>
<g filter="url(#filter2_d_761_17601)">
<mask id="path-5-outside-2_761_17601" maskUnits="userSpaceOnUse" x="13.9941" y="28.5398" width="150" height="149" fill="black">
<rect fill="white" x="13.9941" y="28.5398" width="150" height="149"/>
<path fill-rule="evenodd" clip-rule="evenodd" d="M80.5241 55.5007C82.6922 59.4063 82.7934 64.1296 80.7964 68.1243L72.0594 85.5983C72.0863 85.6933 72.1145 85.7919 72.1442 85.8941C72.5368 87.2445 73.18 89.1937 74.1607 91.4878C76.1314 96.0976 79.4065 101.963 84.6275 107.184C89.8478 112.404 95.6994 115.666 100.294 117.624C102.58 118.598 104.522 119.235 105.866 119.623C105.967 119.653 106.065 119.68 106.159 119.707L123.635 110.969C127.633 108.969 132.36 109.073 136.267 111.245L154.312 121.277C154.312 121.277 154.312 121.277 154.312 121.277C158.607 123.665 161.272 128.194 161.272 133.108V153.825C161.272 167.732 148.161 178.357 134.389 173.71C113.746 166.745 80.8451 153.238 59.7094 132.102C38.5733 110.966 25.0665 78.0652 18.1011 57.4224C13.4543 43.6507 24.0791 30.5398 37.986 30.5398H58.6992C63.6166 30.5398 68.1474 33.2064 70.5341 37.506C70.5341 37.5059 70.5342 37.5062 70.5341 37.506L80.5241 55.5007ZM63.5065 128.305C83.7059 148.505 115.575 161.695 136.106 168.622C146.102 171.995 155.902 164.375 155.902 153.825V133.108C155.902 130.143 154.294 127.411 151.703 125.971L133.658 115.938C131.301 114.628 128.449 114.565 126.037 115.771L106.793 125.393C106.793 125.393 92.5022 122.653 80.8304 110.981C69.1586 99.309 66.3697 84.9704 66.3697 84.9704L75.9933 65.7232C77.1983 63.3128 77.137 60.463 75.8291 58.1069L65.8393 40.1125C64.3995 37.5186 61.6661 35.9097 58.6992 35.9097H37.986C27.4361 35.9097 19.8162 45.7091 23.1891 55.7055C30.1166 76.2361 43.3066 108.105 63.5065 128.305ZM71.6377 83.9294C71.6375 83.9283 71.6375 83.9284 71.6377 83.9294V83.9294Z"/>
</mask>
<path fill-rule="evenodd" clip-rule="evenodd" d="M80.5241 55.5007C82.6922 59.4063 82.7934 64.1296 80.7964 68.1243L72.0594 85.5983C72.0863 85.6933 72.1145 85.7919 72.1442 85.8941C72.5368 87.2445 73.18 89.1937 74.1607 91.4878C76.1314 96.0976 79.4065 101.963 84.6275 107.184C89.8478 112.404 95.6994 115.666 100.294 117.624C102.58 118.598 104.522 119.235 105.866 119.623C105.967 119.653 106.065 119.68 106.159 119.707L123.635 110.969C127.633 108.969 132.36 109.073 136.267 111.245L154.312 121.277C154.312 121.277 154.312 121.277 154.312 121.277C158.607 123.665 161.272 128.194 161.272 133.108V153.825C161.272 167.732 148.161 178.357 134.389 173.71C113.746 166.745 80.8451 153.238 59.7094 132.102C38.5733 110.966 25.0665 78.0652 18.1011 57.4224C13.4543 43.6507 24.0791 30.5398 37.986 30.5398H58.6992C63.6166 30.5398 68.1474 33.2064 70.5341 37.506C70.5341 37.5059 70.5342 37.5062 70.5341 37.506L80.5241 55.5007ZM63.5065 128.305C83.7059 148.505 115.575 161.695 136.106 168.622C146.102 171.995 155.902 164.375 155.902 153.825V133.108C155.902 130.143 154.294 127.411 151.703 125.971L133.658 115.938C131.301 114.628 128.449 114.565 126.037 115.771L106.793 125.393C106.793 125.393 92.5022 122.653 80.8304 110.981C69.1586 99.309 66.3697 84.9704 66.3697 84.9704L75.9933 65.7232C77.1983 63.3128 77.137 60.463 75.8291 58.1069L65.8393 40.1125C64.3995 37.5186 61.6661 35.9097 58.6992 35.9097H37.986C27.4361 35.9097 19.8162 45.7091 23.1891 55.7055C30.1166 76.2361 43.3066 108.105 63.5065 128.305ZM71.6377 83.9294C71.6375 83.9283 71.6375 83.9284 71.6377 83.9294V83.9294Z" fill="white"/>
<path d="M134.815 115.915L137.141 111.731L135.393 110.759L133.067 114.943L134.815 115.915ZM80.5241 55.5007L82.2728 54.53L82.2727 54.5299L80.5241 55.5007ZM80.7964 68.1243L82.5853 69.0188L82.5853 69.0186L80.7964 68.1243ZM72.0594 85.5983L70.2706 84.7038C70.0478 85.1494 69.9993 85.6621 70.1346 86.1415L72.0594 85.5983ZM72.1442 85.8941L74.0647 85.3357L74.0647 85.3357L72.1442 85.8941ZM74.1607 91.4878L72.3217 92.274L74.1607 91.4878ZM84.6275 107.184L83.2133 108.598L84.6275 107.184ZM100.294 117.624L99.5095 119.464V119.464L100.294 117.624ZM105.866 119.623L105.312 121.545L105.312 121.545L105.866 119.623ZM106.159 119.707L105.619 121.632C106.098 121.766 106.609 121.718 107.053 121.495L106.159 119.707ZM123.635 110.969L124.53 112.757L124.53 112.757L123.635 110.969ZM136.267 111.245L137.239 109.497L137.239 109.497L136.267 111.245ZM134.389 173.71L135.028 171.815L135.028 171.815L134.389 173.71ZM59.7094 132.102L61.1237 130.688L61.1236 130.688L59.7094 132.102ZM18.1011 57.4224L16.206 58.0618L16.2061 58.0618L18.1011 57.4224ZM136.106 168.622L136.745 166.727L136.745 166.727L136.106 168.622ZM63.5065 128.305L64.9207 126.891L64.9207 126.891L63.5065 128.305ZM151.703 125.971L150.731 127.719L150.731 127.719L151.703 125.971ZM133.658 115.938L134.63 114.19L134.63 114.19L133.658 115.938ZM126.037 115.771L126.931 117.56L126.932 117.56L126.037 115.771ZM106.793 125.393L106.416 127.358C106.847 127.44 107.294 127.379 107.687 127.182L106.793 125.393ZM80.8304 110.981L79.4162 112.395L80.8304 110.981ZM66.3697 84.9704L64.5808 84.076C64.3836 84.4705 64.3223 84.9192 64.4065 85.3522L66.3697 84.9704ZM75.9933 65.7232L77.7821 66.6176L77.7822 66.6175L75.9933 65.7232ZM75.8291 58.1069L77.5778 57.1362L77.5777 57.1362L75.8291 58.1069ZM65.8393 40.1125L64.0906 41.0831L64.0907 41.0832L65.8393 40.1125ZM23.1891 55.7055L21.2941 56.3449L21.2941 56.345L23.1891 55.7055ZM71.6377 83.9294L69.6779 84.3285C69.898 85.4095 70.9519 86.1082 72.0333 85.8899C73.1147 85.6717 73.8152 84.619 73.5989 83.5372L71.6377 83.9294ZM82.5853 69.0186C84.8773 64.4338 84.7612 59.0127 82.2728 54.53L78.7755 56.4714C80.6232 59.7999 80.7095 63.8254 79.0075 67.23L82.5853 69.0186ZM74.0647 85.3357C74.0364 85.2386 74.0096 85.145 73.9842 85.055L70.1346 86.1415C70.1629 86.2416 70.1926 86.3452 70.2237 86.4524L74.0647 85.3357ZM75.9997 90.7016C75.0552 88.4923 74.4382 86.6205 74.0647 85.3357L70.2237 86.4524C70.6354 87.8684 71.3047 89.8951 72.3217 92.274L75.9997 90.7016ZM86.0417 105.77C81.0497 100.778 77.9013 95.1498 75.9997 90.7016L72.3217 92.274C74.3615 97.0454 77.7633 103.148 83.2133 108.598L86.0417 105.77ZM101.078 115.784C96.6465 113.896 91.0327 110.761 86.0417 105.77L83.2133 108.598C88.6628 114.048 94.7524 117.437 99.5095 119.464L101.078 115.784ZM106.421 117.702C105.143 117.333 103.279 116.722 101.078 115.784L99.5095 119.464C101.882 120.475 103.901 121.138 105.312 121.545L106.421 117.702ZM106.698 117.781C106.61 117.756 106.517 117.73 106.421 117.702L105.312 121.545C105.418 121.576 105.52 121.605 105.619 121.632L106.698 117.781ZM122.741 109.18L105.264 117.918L107.053 121.495L124.53 112.757L122.741 109.18ZM137.239 109.497C132.755 107.004 127.33 106.885 122.741 109.18L124.53 112.757C127.937 111.053 131.966 111.142 135.295 112.993L137.239 109.497ZM155.284 119.529L137.239 109.497L135.295 112.993L153.341 123.025L155.284 119.529ZM155.422 119.613V119.613C155.422 119.613 155.422 119.613 155.422 119.613C155.422 119.613 155.422 119.613 155.422 119.613C155.422 119.613 155.422 119.613 155.422 119.613H155.422C155.422 119.613 155.422 119.613 155.422 119.613C155.422 119.613 155.422 119.613 155.422 119.613C155.422 119.613 155.422 119.613 155.422 119.613C155.422 119.613 155.422 119.613 155.422 119.613C155.422 119.613 155.422 119.613 155.422 119.613C155.422 119.613 155.422 119.613 155.422 119.613C155.422 119.613 155.422 119.613 155.422 119.613C155.422 119.613 155.422 119.613 155.422 119.613C152.648 120.168 153.203 122.941 153.203 122.941C153.203 122.941 153.203 122.941 153.203 122.941C153.203 122.941 153.203 122.941 153.203 122.941C153.203 122.941 153.203 122.941 153.203 122.941C153.203 122.941 153.203 122.941 153.203 122.941C153.203 122.942 153.203 122.942 153.203 122.942C153.203 122.942 153.203 122.942 153.203 122.942C153.203 122.941 153.203 122.942 153.203 122.942C153.203 122.941 152.648 120.168 155.422 119.613C155.422 119.613 155.422 119.613 155.422 119.613C155.422 119.613 155.422 119.613 155.422 119.613C155.422 119.613 155.422 119.613 155.422 119.613C155.422 119.613 155.422 119.613 155.422 119.613C155.422 119.613 155.422 119.613 155.422 119.613L153.203 122.941C153.203 122.941 153.203 122.941 153.203 122.942C153.203 122.942 153.203 122.941 153.203 122.941C153.203 122.941 153.203 122.942 153.203 122.942C155.976 122.387 155.422 119.613 155.422 119.613C155.422 119.613 155.422 119.613 155.422 119.613C155.422 119.613 155.422 119.613 155.422 119.613C155.422 119.613 155.422 119.613 155.422 119.613C155.422 119.613 155.422 119.613 155.422 119.613C155.422 119.613 155.422 119.613 155.422 119.613C155.422 119.613 155.422 119.613 155.422 119.613C155.422 119.613 155.422 119.613 155.422 119.613C155.422 119.613 155.422 119.613 155.422 119.613C155.422 119.613 155.976 122.387 153.203 122.941C153.203 122.941 153.203 122.941 153.203 122.941C153.203 122.941 153.203 122.941 153.203 122.941C153.203 122.941 153.203 122.941 153.203 122.941C153.203 122.941 153.203 122.941 153.203 122.941C153.203 122.942 153.203 122.941 153.203 122.941L155.422 119.613ZM163.272 133.108C163.272 127.468 160.214 122.27 155.284 119.529L153.341 123.025C157.001 125.06 159.272 128.92 159.272 133.108H163.272ZM163.272 153.825V133.108H159.272V153.825H163.272ZM133.749 175.605C148.942 180.732 163.272 168.966 163.272 153.825H159.272C159.272 166.498 147.379 175.983 135.028 171.815L133.749 175.605ZM58.2952 133.516C79.7794 155.001 113.064 168.625 133.749 175.605L135.028 171.815C114.427 164.864 81.9107 151.475 61.1237 130.688L58.2952 133.516ZM16.2061 58.0618C23.1857 78.7468 36.8105 112.032 58.2952 133.516L61.1236 130.688C40.3361 109.901 26.9473 77.3836 19.9961 56.7829L16.2061 58.0618ZM37.986 28.5398C22.8448 28.5398 11.08 42.8694 16.206 58.0618L19.9961 56.783C15.8287 44.432 25.3134 32.5398 37.986 32.5398V28.5398ZM58.6992 28.5398H37.986V32.5398H58.6992V28.5398ZM72.2828 36.5354C69.5434 31.6004 64.3431 28.5398 58.6992 28.5398V32.5398C62.8901 32.5398 66.7514 34.8124 68.7855 38.4767L72.2828 36.5354ZM72.2724 36.5168C72.2723 36.5167 72.2725 36.517 72.2724 36.5168C72.2724 36.5168 72.2724 36.5168 72.2724 36.5168C72.2724 36.5168 72.2724 36.5168 72.2724 36.5168C72.2724 36.5168 72.2724 36.5168 72.2724 36.5168C72.2724 36.5168 72.2724 36.5168 72.2724 36.5168C72.2724 36.5168 72.2724 36.5168 72.2724 36.5168C72.2724 36.5168 72.2724 36.5168 72.2724 36.5168C71.5233 39.2442 68.7959 38.4952 68.7959 38.4952C68.7959 38.4952 68.7959 38.4952 68.7959 38.4952C68.7959 38.4952 68.7959 38.4952 68.7959 38.4952C68.7959 38.4952 68.7959 38.4952 68.7959 38.4952C68.7959 38.4952 68.7959 38.4952 68.7959 38.4952C68.7959 38.4952 68.7959 38.4952 68.7959 38.4952C68.7959 38.4952 68.7959 38.4952 68.7959 38.4952C68.7959 38.4952 68.7959 38.4952 68.7959 38.4952C68.7959 38.4952 68.7959 38.4952 68.7959 38.4952C68.7959 38.4952 68.7959 38.4952 68.7959 38.4952C68.7959 38.4952 68.7959 38.4952 68.7959 38.4952C68.7959 38.4952 68.7959 38.4952 68.7959 38.4952C68.7959 38.4952 68.7959 38.4952 68.7959 38.4952V38.4952C68.7959 38.4952 68.7959 38.4952 68.7959 38.4952C68.7959 38.4952 68.7959 38.4952 68.7959 38.4952C68.7959 38.4952 68.7959 38.4952 68.7959 38.4952C68.7959 38.4952 68.7959 38.4952 68.7959 38.4952C68.7959 38.4952 68.7959 38.4952 68.7959 38.4952C68.7959 38.4953 68.7959 38.4952 68.7959 38.4952C68.7959 38.4953 68.7959 38.4952 68.7959 38.4953C68.7959 38.4953 68.7959 38.4953 68.7959 38.4953C68.796 38.4953 68.7959 38.4952 68.7959 38.4953C68.7959 38.4953 68.7959 38.4953 68.7959 38.4953C68.7959 38.4953 68.7959 38.4953 68.7959 38.4953C68.7959 38.4953 68.7959 38.4953 68.7959 38.4953C68.7959 38.4953 68.7959 38.4953 68.7959 38.4953C68.7959 38.4953 71.5234 39.2443 72.2724 36.5169C72.2724 36.5169 72.2724 36.5169 72.2724 36.5169C72.2724 36.5169 72.2724 36.5169 72.2724 36.5169C72.2724 36.5169 72.2724 36.5169 72.2724 36.5169V36.5169C72.2724 36.5169 72.2724 36.5169 72.2724 36.5169C72.2724 36.5169 72.2724 36.5169 72.2724 36.5169C72.2724 36.5169 72.2724 36.5169 72.2724 36.5169C72.2724 36.5168 72.2724 36.5169 72.2724 36.5168L68.7959 38.4952C68.796 38.4954 68.7958 38.4951 68.7959 38.4953C68.7959 38.4953 68.7959 38.4953 68.7959 38.4953C68.7959 38.4953 68.7959 38.4953 68.7959 38.4953C68.7959 38.4953 68.7959 38.4953 68.7959 38.4953C68.7959 38.4953 68.7959 38.4953 68.7959 38.4953C68.7959 38.4953 68.7959 38.4953 68.7959 38.4953C68.7959 38.4953 68.7959 38.4953 68.7959 38.4953C69.545 35.7678 72.2724 36.5169 72.2724 36.5169C72.2724 36.5169 72.2724 36.5169 72.2724 36.5169C72.2724 36.5169 72.2724 36.5169 72.2724 36.5169C72.2724 36.5169 72.2724 36.5169 72.2724 36.5169C72.2724 36.5169 72.2724 36.5169 72.2724 36.5169C72.2724 36.5169 72.2724 36.5169 72.2724 36.5169C72.2724 36.5169 72.2724 36.5169 72.2724 36.5169C72.2724 36.5169 72.2724 36.5169 72.2724 36.5169C72.2724 36.5169 72.2724 36.5169 72.2724 36.5169C72.2724 36.5169 72.2724 36.5169 72.2724 36.5169C72.2724 36.5169 72.2724 36.5169 72.2724 36.5169C72.2724 36.5168 72.2724 36.5169 72.2724 36.5168C72.2724 36.5168 72.2724 36.5169 72.2724 36.5168V36.5168C72.2724 36.5168 72.2724 36.5168 72.2724 36.5168C72.2724 36.5168 72.2724 36.5168 72.2724 36.5168C72.2724 36.5168 72.2724 36.5168 72.2724 36.5168C72.2724 36.5168 72.2724 36.5168 72.2724 36.5168C72.2724 36.5168 72.2724 36.5168 72.2724 36.5168C72.2724 36.5168 72.2724 36.5168 72.2724 36.5168C72.2724 36.5168 72.2724 36.5168 72.2724 36.5168C72.2724 36.5168 72.2724 36.5168 72.2724 36.5168C72.2724 36.5168 72.2724 36.5168 72.2724 36.5168C72.2723 36.5167 72.2724 36.5169 72.2724 36.5168C72.2724 36.5168 72.2724 36.5168 72.2724 36.5168C72.2724 36.5168 72.2724 36.5168 72.2724 36.5168C72.2724 36.5168 72.2724 36.5168 72.2724 36.5168C72.2724 36.5168 72.2724 36.5168 72.2724 36.5168C72.2724 36.5168 69.5449 35.7678 68.7959 38.4952C68.7959 38.4952 68.7959 38.4952 68.7959 38.4952C68.7959 38.4952 68.7959 38.4952 68.7959 38.4952C68.7959 38.4952 68.7959 38.4952 68.7959 38.4952V38.4952C68.7959 38.4952 68.7959 38.4952 68.7959 38.4952C68.7959 38.4952 68.7959 38.4952 68.7959 38.4952C68.7959 38.4952 68.7959 38.4952 68.7959 38.4952C68.7959 38.4952 68.7959 38.4952 68.7959 38.4952L72.2724 36.5168ZM82.2727 54.5299L72.2828 36.5353L68.7855 38.4768L78.7755 56.4715L82.2727 54.5299ZM136.745 166.727C116.256 159.814 84.7714 146.742 64.9207 126.891L62.0922 129.719C82.6404 150.268 114.894 163.576 135.466 170.517L136.745 166.727ZM153.902 153.825C153.902 163.125 145.335 169.626 136.745 166.727L135.466 170.517C146.869 174.365 157.902 165.626 157.902 153.825H153.902ZM153.902 133.108V153.825H157.902V133.108H153.902ZM150.731 127.719C152.688 128.807 153.902 130.87 153.902 133.108H157.902C157.902 129.417 155.901 126.016 152.675 124.223L150.731 127.719ZM132.686 117.686L150.731 127.719L152.675 124.223L134.63 114.19L132.686 117.686ZM126.932 117.56C128.753 116.649 130.906 116.697 132.686 117.686L134.63 114.19C131.695 112.559 128.145 112.481 125.142 113.983L126.932 117.56ZM107.687 127.182L126.931 117.56L125.143 113.983L105.898 123.604L107.687 127.182ZM79.4162 112.395C85.4814 118.46 92.2099 122.19 97.4044 124.404C100.006 125.512 102.235 126.246 103.823 126.704C104.617 126.934 105.253 127.094 105.696 127.199C105.917 127.252 106.091 127.29 106.212 127.316C106.273 127.329 106.321 127.339 106.355 127.345C106.372 127.349 106.385 127.352 106.396 127.354C106.401 127.355 106.405 127.355 106.408 127.356C106.41 127.356 106.412 127.357 106.413 127.357C106.413 127.357 106.414 127.357 106.415 127.357C106.415 127.357 106.416 127.358 106.793 125.393C107.169 123.429 107.17 123.429 107.17 123.429C107.171 123.429 107.171 123.429 107.171 123.429C107.172 123.43 107.172 123.43 107.172 123.43C107.172 123.43 107.171 123.429 107.169 123.429C107.165 123.428 107.158 123.427 107.148 123.425C107.127 123.421 107.093 123.414 107.046 123.404C106.953 123.384 106.808 123.352 106.616 123.306C106.232 123.216 105.66 123.071 104.932 122.861C103.476 122.441 101.403 121.76 98.9725 120.724C94.1039 118.649 87.8512 115.173 82.2446 109.567L79.4162 112.395ZM66.3697 84.9704C64.4065 85.3522 64.4066 85.3529 64.4067 85.3536C64.4068 85.3539 64.407 85.3547 64.4071 85.3553C64.4073 85.3566 64.4076 85.358 64.4079 85.3597C64.4086 85.3631 64.4095 85.3673 64.4105 85.3724C64.4125 85.3827 64.4153 85.3963 64.4188 85.4134C64.4258 85.4476 64.4357 85.4953 64.4489 85.5561C64.4751 85.6777 64.514 85.8517 64.567 86.0738C64.673 86.5179 64.8358 87.155 65.0673 87.9515C65.5303 89.5437 66.2698 91.7782 67.3841 94.3849C69.6094 99.5901 73.3513 106.33 79.4162 112.395L82.2446 109.567C76.6377 103.96 73.1493 97.6945 71.0621 92.8125C70.0203 90.3755 69.3331 88.2958 68.9083 86.8348C68.6961 86.1048 68.5497 85.5305 68.4576 85.1448C68.4116 84.952 68.3792 84.8065 68.3589 84.7124C68.3487 84.6653 68.3416 84.6311 68.3373 84.6103C68.3352 84.5999 68.3338 84.5929 68.333 84.5892C68.3327 84.5874 68.3325 84.5864 68.3325 84.5863C68.3325 84.5862 68.3325 84.5864 68.3326 84.5868C68.3326 84.5869 68.3327 84.5874 68.3327 84.5875C68.3328 84.588 68.3329 84.5885 66.3697 84.9704ZM74.2044 64.8288L64.5808 84.076L68.1585 85.8648L77.7821 66.6176L74.2044 64.8288ZM74.0805 59.0776C75.068 60.8566 75.1144 63.0086 74.2044 64.8289L77.7822 66.6175C79.2822 63.617 79.206 60.0694 77.5778 57.1362L74.0805 59.0776ZM64.0907 41.0832L74.0805 59.0777L77.5777 57.1362L67.5879 39.1417L64.0907 41.0832ZM58.6992 37.9097C60.9396 37.9097 63.0035 39.1246 64.0906 41.0831L67.5879 39.1418C65.7955 35.9126 62.3926 33.9097 58.6992 33.9097V37.9097ZM37.986 37.9097H58.6992V33.9097H37.986V37.9097ZM25.0841 55.0661C22.1857 46.4758 28.6863 37.9097 37.986 37.9097V33.9097C26.1858 33.9097 17.4467 44.9424 21.2941 56.3449L25.0841 55.0661ZM64.9207 126.891C45.0695 107.04 31.9976 75.5549 25.0841 55.0661L21.2941 56.345C28.2357 76.9174 41.5437 109.171 62.0923 129.719L64.9207 126.891ZM73.5975 83.5304C73.5976 83.5311 73.5979 83.5323 73.5982 83.5339C73.5983 83.5345 73.5987 83.5364 73.5991 83.5387C73.5993 83.5393 73.6 83.5428 73.6008 83.5473C73.601 83.5479 73.6026 83.5563 73.6045 83.5668C73.6051 83.57 73.6061 83.5756 73.6074 83.5827C73.6082 83.5872 73.6111 83.6041 73.6145 83.6258C73.6158 83.6347 73.6199 83.6612 73.6239 83.6953C73.626 83.7139 73.6306 83.762 73.6328 83.7915C73.6358 83.8453 73.6352 84.026 73.625 84.1525C73.4887 84.6857 71.794 85.9225 70.2744 85.3921C70.038 85.1292 69.8089 84.7387 69.7709 84.6467C69.7549 84.6037 69.7318 84.5354 69.724 84.5103C69.7191 84.494 69.7112 84.4663 69.708 84.4548C69.6976 84.4169 69.6906 84.3863 69.69 84.3838C69.6877 84.3741 69.686 84.3664 69.6852 84.3627C69.6835 84.355 69.6822 84.3489 69.6817 84.3467C69.6806 84.3415 69.6797 84.3374 69.6795 84.3362C69.6788 84.333 69.6783 84.3305 69.6782 84.3297C69.6777 84.3277 69.6774 84.3261 69.6773 84.3254C69.677 84.3238 69.6767 84.3225 69.6765 84.3217L73.5989 83.5372C73.5986 83.5358 73.5982 83.5342 73.5979 83.5322C73.5977 83.5314 73.5973 83.5297 73.5969 83.5276C73.5968 83.5268 73.5962 83.5243 73.5956 83.5211C73.5953 83.5198 73.5945 83.5158 73.5933 83.5105C73.5929 83.5083 73.5916 83.5022 73.5898 83.4945C73.589 83.4908 73.5873 83.4831 73.585 83.4735C73.5844 83.4709 73.5774 83.4403 73.5671 83.4024C73.5639 83.3909 73.5559 83.3632 73.5511 83.3469C73.5433 83.3218 73.5202 83.2535 73.5042 83.2106C73.4661 83.1185 73.2371 82.728 73.0007 82.4651C71.481 81.9347 69.7864 83.1715 69.6501 83.7047C69.6399 83.8312 69.6393 84.0119 69.6422 84.0657C69.6445 84.0952 69.6491 84.1433 69.6512 84.1619C69.6552 84.196 69.6592 84.2225 69.6606 84.2314C69.6639 84.2531 69.6669 84.27 69.6677 84.2745C69.6689 84.2816 69.6699 84.2873 69.6705 84.2904C69.6725 84.3009 69.6741 84.3093 69.6742 84.3099C69.6751 84.3144 69.6758 84.3179 69.6759 84.3186C69.6764 84.321 69.6768 84.3229 69.6769 84.3237C69.6773 84.3256 69.6777 84.3273 69.6779 84.3285L73.5975 83.5304ZM73.8483 86.4927L82.5853 69.0188L79.0075 67.2299L70.2706 84.7038L73.8483 86.4927Z" fill="#E325DC" mask="url(#path-5-outside-2_761_17601)"/>
</g>
<defs>
<filter id="filter0_d_761_17601" x="98.5469" y="11.5071" width="84.3223" height="84.322" filterUnits="userSpaceOnUse" color-interpolation-filters="sRGB">
<feFlood flood-opacity="0" result="BackgroundImageFix"/>
<feColorMatrix in="SourceAlpha" type="matrix" values="0 0 0 0 0 0 0 0 0 0 0 0 0 0 0 0 0 0 127 0" result="hardAlpha"/>
<feOffset/>
<feGaussianBlur stdDeviation="3.5"/>
<feComposite in2="hardAlpha" operator="out"/>
<feColorMatrix type="matrix" values="0 0 0 0 1 0 0 0 0 0.8875 0 0 0 0 0.995575 0 0 0 0.52 0"/>
<feBlend mode="normal" in2="BackgroundImageFix" result="effect1_dropShadow_761_17601"/>
<feBlend mode="normal" in="SourceGraphic" in2="effect1_dropShadow_761_17601" result="shape"/>
</filter>
<filter id="filter1_d_761_17601" x="100.061" y="41.0481" width="51.502" height="51.5017" filterUnits="userSpaceOnUse" color-interpolation-filters="sRGB">
<feFlood flood-opacity="0" result="BackgroundImageFix"/>
<feColorMatrix in="SourceAlpha" type="matrix" values="0 0 0 0 0 0 0 0 0 0 0 0 0 0 0 0 0 0 127 0" result="hardAlpha"/>
<feOffset/>
<feGaussianBlur stdDeviation="3.5"/>
<feComposite in2="hardAlpha" operator="out"/>
<feColorMatrix type="matrix" values="0 0 0 0 1 0 0 0 0 0.8875 0 0 0 0 0.995575 0 0 0 0.52 0"/>
<feBlend mode="normal" in2="BackgroundImageFix" result="effect1_dropShadow_761_17601"/>
<feBlend mode="normal" in="SourceGraphic" in2="effect1_dropShadow_761_17601" result="shape"/>
</filter>
<filter id="filter2_d_761_17601" x="7.98633" y="21.5398" width="162.285" height="162.284" filterUnits="userSpaceOnUse" color-interpolation-filters="sRGB">
<feFlood flood-opacity="0" result="BackgroundImageFix"/>
<feColorMatrix in="SourceAlpha" type="matrix" values="0 0 0 0 0 0 0 0 0 0 0 0 0 0 0 0 0 0 127 0" result="hardAlpha"/>
<feOffset/>
<feGaussianBlur stdDeviation="3.5"/>
<feComposite in2="hardAlpha" operator="out"/>
<feColorMatrix type="matrix" values="0 0 0 0 1 0 0 0 0 0.8875 0 0 0 0 0.995575 0 0 0 0.52 0"/>
<feBlend mode="normal" in2="BackgroundImageFix" result="effect1_dropShadow_761_17601"/>
<feBlend mode="normal" in="SourceGraphic" in2="effect1_dropShadow_761_17601" result="shape"/>
</filter>
</defs>
</svg>
