<svg width="9" height="9" viewBox="0 0 9 9" fill="none" xmlns="http://www.w3.org/2000/svg">
<g clip-path="url(#clip0_1143_15965)">
<path d="M5.05769 6.56558e-06C4.31018 0.000736541 3.5783 0.214062 2.94746 0.615083C2.31663 1.01611 1.81286 1.58828 1.49497 2.26483C1.17708 2.94137 1.05817 3.69438 1.15212 4.43597C1.24607 5.17755 1.54901 5.87711 2.02557 6.45301L1.60433 6.87426L0.85929 6.13355C0.788205 6.06583 0.693787 6.02805 0.595603 6.02805C0.49742 6.02805 0.403002 6.06583 0.331917 6.13355C0.262219 6.20339 0.223074 6.29803 0.223074 6.3967C0.223074 6.49537 0.262219 6.59 0.331917 6.65984L1.0737 7.40055L0.10884 8.36433C0.0390494 8.43426 -0.000101345 8.52906 1.97027e-07 8.62786C0.000101739 8.72666 0.0394473 8.82137 0.109381 8.89116C0.179315 8.96095 0.274109 9.0001 0.372909 9C0.471709 8.9999 0.566422 8.96055 0.636212 8.89062L1.59999 7.92684L2.3407 8.66321C2.37465 8.70036 2.41578 8.73024 2.4616 8.75105C2.50742 8.77186 2.55699 8.78317 2.6073 8.7843C2.65761 8.78543 2.70763 8.77635 2.75434 8.75762C2.80105 8.73888 2.84348 8.71087 2.87907 8.67529C2.91465 8.6397 2.94266 8.59727 2.96139 8.55057C2.98013 8.50386 2.98921 8.45384 2.98808 8.40352C2.98695 8.35321 2.97564 8.30365 2.95483 8.25782C2.93401 8.212 2.90413 8.17087 2.86699 8.13692L2.12628 7.39622L2.54753 6.97497C3.03469 7.37928 3.61207 7.6603 4.23082 7.79426C4.84957 7.92822 5.49148 7.91117 6.10225 7.74456C6.71302 7.57795 7.27467 7.26668 7.73968 6.83708C8.2047 6.40749 8.5594 5.8722 8.77378 5.27652C8.98815 4.68084 9.05589 4.04228 8.97127 3.41488C8.88665 2.78748 8.65216 2.18969 8.28763 1.67208C7.92309 1.15448 7.43925 0.732297 6.87704 0.441249C6.31482 0.1502 5.69078 -0.00114881 5.05769 6.56558e-06ZM5.05769 7.13957C4.42523 7.13957 3.80697 6.95202 3.28109 6.60064C2.75521 6.24926 2.34534 5.74983 2.10331 5.16551C1.86127 4.58119 1.79795 3.93822 1.92133 3.3179C2.04472 2.69759 2.34928 2.1278 2.79651 1.68057C3.24373 1.23335 3.81352 0.928792 4.43383 0.805404C5.05415 0.682016 5.69712 0.745343 6.28144 0.987377C6.86576 1.22941 7.36519 1.63928 7.71657 2.16516C8.06795 2.69104 8.2555 3.3093 8.2555 3.94176C8.25493 4.7897 7.91783 5.60274 7.31825 6.20232C6.71867 6.8019 5.90563 7.13899 5.05769 7.13957Z" fill="white"/>
</g>
<defs>
<clipPath id="clip0_1143_15965">
<rect width="9" height="9" fill="white"/>
</clipPath>
</defs>
</svg>
