<svg width="18" height="18" viewBox="0 0 18 18" fill="none" xmlns="http://www.w3.org/2000/svg">
<path d="M5.625 5.25C6.45343 5.25 7.125 4.57843 7.125 3.75C7.125 2.92157 6.45343 2.25 5.625 2.25C4.79657 2.25 4.125 2.92157 4.125 3.75C4.125 4.57843 4.79657 5.25 5.625 5.25Z" stroke="#C2C2C2" stroke-width="1.5" stroke-linecap="round" stroke-linejoin="round"/>
<path d="M12.375 5.25C13.2034 5.25 13.875 4.57843 13.875 3.75C13.875 2.92157 13.2034 2.25 12.375 2.25C11.5466 2.25 10.875 2.92157 10.875 3.75C10.875 4.57843 11.5466 5.25 12.375 5.25Z" stroke="#C2C2C2" stroke-width="1.5" stroke-linecap="round" stroke-linejoin="round"/>
<path d="M3.75 7.5H7.5L6.75 15.75H4.5L3.75 7.5Z" stroke="#C2C2C2" stroke-width="1.5" stroke-linecap="round" stroke-linejoin="round"/>
<path d="M10.5 7.5H14.25L15 11.625H13.875L13.5 15.75H11.25L10.875 11.625H9.75L10.5 7.5Z" stroke="#C2C2C2" stroke-width="1.5" stroke-linecap="round" stroke-linejoin="round"/>
</svg>
