<svg width="18" height="18" viewBox="0 0 18 18" fill="none" xmlns="http://www.w3.org/2000/svg">
<path d="M9 4.5V6.375" stroke="#C2C2C2" stroke-width="1.5" stroke-linecap="round" stroke-linejoin="round"/>
<path d="M3 10.125V15C3 15.4142 3.33579 15.75 3.75 15.75H14.25C14.6642 15.75 15 15.4142 15 15V10.125" stroke="#C2C2C2" stroke-width="1.5" stroke-linecap="round" stroke-linejoin="round"/>
<path d="M1.5 8.23841C1.5 7.20926 2.33428 6.375 3.36341 6.375H14.6366C15.6657 6.375 16.5 7.20926 16.5 8.23841V8.34304C16.5 9.04181 16.0746 9.67016 15.4258 9.92966C15.116 10.0536 14.7674 10.0355 14.4721 9.88005L14.3438 9.81251C13.9721 9.61688 13.5279 9.61688 13.1562 9.81251C12.7846 10.0081 12.3404 10.0081 11.9688 9.81251C11.5971 9.61688 11.1529 9.61688 10.7812 9.81251C10.4096 10.0081 9.9654 10.0081 9.59374 9.81251C9.22207 9.61688 8.77793 9.61688 8.40626 9.81251C8.0346 10.0081 7.59041 10.0081 7.21875 9.81251C6.84709 9.61688 6.4029 9.61688 6.03124 9.81251C5.65957 10.0081 5.21543 10.0081 4.84376 9.81251C4.4721 9.61688 4.02791 9.61688 3.65625 9.81251L3.52789 9.88005C3.2326 10.0355 2.88402 10.0536 2.5742 9.92966C1.92542 9.67016 1.5 9.04181 1.5 8.34304V8.23841Z" stroke="#C2C2C2" stroke-width="1.5" stroke-linecap="round" stroke-linejoin="round"/>
<path d="M10.125 3C9.82499 1.5 9.00003 1.5 9.00003 1.5C9.00003 1.5 8.17529 1.5 7.87529 3C7.50029 4.875 10.5 4.875 10.125 3Z" stroke="#C2C2C2" stroke-width="1.5"/>
</svg>
