<svg width="12" height="12" viewBox="0 0 12 12" fill="none" xmlns="http://www.w3.org/2000/svg">
<g clip-path="url(#clip0_1120_16426)">
<path d="M5.625 6V12H1.5C1.30109 12 1.11032 11.921 0.96967 11.7803C0.829018 11.6397 0.75 11.4489 0.75 11.25V6H5.625ZM6.375 6H11.25V11.25C11.25 11.4489 11.171 11.6397 11.0303 11.7803C10.8897 11.921 10.6989 12 10.5 12H6.375V6ZM5.625 3V5.25H0.75C0.551087 5.25 0.360322 5.17098 0.21967 5.03033C0.0790174 4.88968 4.66201e-09 4.69891 0 4.5V3.75C0 3.55109 0.0790174 3.36032 0.21967 3.21967C0.360322 3.07902 0.551087 3 0.75 3H5.625ZM6.375 3H11.25C11.4489 3 11.6397 3.07902 11.7803 3.21967C11.921 3.36032 12 3.55109 12 3.75V4.5C12 4.69891 11.921 4.88968 11.7803 5.03033C11.6397 5.17098 11.4489 5.25 11.25 5.25H6.375V3ZM6 1.5C6 1.20333 6.08797 0.913319 6.2528 0.666645C6.41762 0.419972 6.65189 0.227713 6.92598 0.114181C7.20006 0.000649924 7.50166 -0.0290551 7.79264 0.0288228C8.08361 0.0867006 8.35088 0.229562 8.56066 0.43934C8.77044 0.649119 8.9133 0.916394 8.97118 1.20737C9.02906 1.49834 8.99935 1.79994 8.88582 2.07403C8.77229 2.34811 8.58003 2.58238 8.33336 2.74721C8.08668 2.91203 7.79667 3 7.5 3H4.5C4.20333 3 3.91332 2.91203 3.66664 2.74721C3.41997 2.58238 3.22771 2.34811 3.11418 2.07403C3.00065 1.79994 2.97094 1.49834 3.02882 1.20737C3.0867 0.916394 3.22956 0.649119 3.43934 0.43934C3.64912 0.229562 3.91639 0.0867006 4.20736 0.0288228C4.49834 -0.0290551 4.79994 0.000649924 5.07403 0.114181C5.34811 0.227713 5.58238 0.419972 5.74721 0.666645C5.91203 0.913319 6 1.20333 6 1.5ZM7.5 2.25C7.69891 2.25 7.88968 2.17098 8.03033 2.03033C8.17098 1.88968 8.25 1.69891 8.25 1.5C8.25 1.30109 8.17098 1.11032 8.03033 0.969671C7.88968 0.829018 7.69891 0.750001 7.5 0.750001C7.30109 0.750001 7.11032 0.829018 6.96967 0.969671C6.82902 1.11032 6.75 1.30109 6.75 1.5C6.75 1.69891 6.82902 1.88968 6.96967 2.03033C7.11032 2.17098 7.30109 2.25 7.5 2.25ZM4.5 2.25C4.59856 2.25025 4.6962 2.23102 4.78731 2.19341C4.87841 2.15581 4.96119 2.10058 5.03088 2.03088C5.10057 1.96119 5.15581 1.87841 5.19341 1.78731C5.23102 1.6962 5.25025 1.59856 5.25 1.5C5.25 1.35166 5.20601 1.20666 5.1236 1.08332C5.04119 0.959986 4.92406 0.863857 4.78701 0.807091C4.64997 0.750325 4.49917 0.735473 4.35368 0.764412C4.2082 0.793351 4.07456 0.864781 3.96967 0.969671C3.86478 1.07456 3.79335 1.2082 3.76441 1.35368C3.73547 1.49917 3.75032 1.64997 3.80709 1.78701C3.86386 1.92406 3.95999 2.04119 4.08332 2.1236C4.20666 2.20601 4.35166 2.25 4.5 2.25Z" fill="#FFEB33"/>
</g>
<defs>
<clipPath id="clip0_1120_16426">
<rect width="12" height="12" fill="white"/>
</clipPath>
</defs>
</svg>
