<svg width="166" height="191" viewBox="0 0 166 191" fill="none" xmlns="http://www.w3.org/2000/svg">
<g filter="url(#filter0_d_761_17097)">
<path fill-rule="evenodd" clip-rule="evenodd" d="M103.946 21.4659L89.3555 53.8922L120.154 42.2178L122.672 41.1184C123.938 40.5652 125.155 39.8114 126.261 38.8561L126.271 38.8472C132.384 33.6042 133.201 24.2243 128.048 17.9387L128.046 17.9366C122.938 11.6957 113.926 10.9088 107.876 16.1141C106.465 17.3325 105.337 18.7582 104.502 20.3096L104.278 20.7262L104.127 21.0604C104.062 21.2047 104.009 21.322 103.956 21.4429L103.946 21.4659ZM100.578 19.9814C100.642 19.8356 100.705 19.6947 100.768 19.5542C100.775 19.5382 100.783 19.5222 100.79 19.5062L101.23 18.5318L101.26 18.5678C101.263 18.5617 101.266 18.5556 101.27 18.5495C101.286 18.5198 101.302 18.4902 101.318 18.4606C101.908 17.3826 102.61 16.3555 103.422 15.3968C104.042 14.6654 104.726 13.9738 105.472 13.33C113.102 6.76269 124.487 7.7791 130.896 15.6092C137.305 23.4271 136.312 35.0818 128.669 41.6369C128.256 41.9944 127.829 42.3296 127.393 42.6425C126.522 43.2659 125.611 43.8007 124.674 44.2469C124.513 44.3233 124.352 44.3972 124.19 44.4684C124.175 44.4748 124.161 44.4811 124.146 44.4874L124.24 44.6018L82.356 60.4783L100.578 19.9814Z" fill="white"/>
<path d="M104.858 21.8763L104.858 21.8762L91.2578 52.1017L119.777 41.2915L122.271 40.202C123.448 39.688 124.579 38.9875 125.607 38.0995L125.617 38.0907L125.62 38.0881C131.317 33.2017 132.085 24.441 127.274 18.5727L127.274 18.5726L127.273 18.5704L127.272 18.5699C122.518 12.7613 114.151 12.0358 108.529 16.8713C107.211 18.0091 106.161 19.3385 105.382 20.7837L105.175 21.1697L105.038 21.471L104.858 21.8763ZM104.858 21.8763L104.864 21.8638M104.858 21.8763L104.864 21.8638M104.864 21.8638L104.874 21.8409L104.874 21.8408M104.864 21.8638L104.874 21.8408M104.874 21.8408C104.923 21.7277 104.973 21.6172 105.038 21.4721L104.874 21.8408ZM125.897 45.0433L125.728 44.8379C126.499 44.4351 127.251 43.9744 127.975 43.4554C128.436 43.1254 128.885 42.7719 129.322 42.3949C137.379 35.4828 138.42 23.2097 131.669 14.9752C124.907 6.71401 112.879 5.63562 104.819 12.5721L104.818 12.573C104.033 13.2508 103.313 13.9794 102.659 14.7504C102.099 15.4119 101.588 16.1044 101.128 16.8227L100.985 16.6476L100.319 18.1198L99.8787 19.0943L99.878 19.0958L99.8565 19.1435L99.8565 19.1436L99.8554 19.1459C99.7937 19.2828 99.7288 19.4271 99.6636 19.5772L81.444 60.0679L80.4537 62.2687L82.7104 61.4133L124.595 45.5369L125.897 45.0433Z" stroke="#E325DC" stroke-width="2"/>
</g>
<g filter="url(#filter1_d_761_17097)">
<path fill-rule="evenodd" clip-rule="evenodd" d="M62.0537 21.4659L76.6445 53.8922L45.8457 42.2178L43.3284 41.1184C42.0618 40.5652 40.8446 39.8114 39.7391 38.8561L39.7288 38.8472C33.6158 33.6042 32.7994 24.2243 37.9522 17.9387L37.954 17.9366C43.0621 11.6957 52.0736 10.9088 58.1237 16.1141C59.5352 17.3325 60.6627 18.7582 61.4981 20.3096L61.7224 20.7262L61.8734 21.0604C61.9384 21.2047 61.9913 21.322 62.0437 21.4429L62.0537 21.4659ZM65.4217 19.9814C65.3585 19.8356 65.295 19.6947 65.2317 19.5542C65.2245 19.5382 65.2173 19.5222 65.2101 19.5062L64.7696 18.5318L64.7402 18.5678C64.7369 18.5617 64.7336 18.5556 64.7303 18.5495C64.7143 18.5198 64.6982 18.4902 64.682 18.4606C64.0923 17.3826 63.3898 16.3555 62.5777 15.3968C61.958 14.6654 61.2745 13.9738 60.5285 13.33C52.8977 6.76269 41.5129 7.7791 35.1039 15.6092C28.695 23.4271 29.6878 35.0818 37.3306 41.6369C37.7443 41.9944 38.1706 42.3296 38.6073 42.6425C39.4775 43.2659 40.3893 43.8007 41.3265 44.2469C41.487 44.3233 41.6483 44.3972 41.8103 44.4684C41.8247 44.4748 41.8392 44.4811 41.8536 44.4874L41.7596 44.6018L83.644 60.4783L65.4217 19.9814Z" fill="white"/>
<path d="M61.1416 21.8763L61.1417 21.8762L74.7422 52.1017L46.2233 41.2915L43.7286 40.202C42.5519 39.688 41.4206 38.9875 40.3929 38.0995L40.3828 38.0907L40.3798 38.0881C34.6825 33.2017 33.9148 24.441 38.7255 18.5727L38.7256 18.5726L38.7274 18.5704L38.7278 18.5699C43.4822 12.7613 51.8492 12.0358 57.4705 16.8713C58.7885 18.0091 59.8394 19.3385 60.6176 20.7837L60.8255 21.1697L60.9616 21.471L61.1416 21.8763ZM61.1416 21.8763L61.1363 21.8638M61.1416 21.8763L61.1363 21.8638M61.1363 21.8638L61.1263 21.8409L61.1262 21.8408M61.1363 21.8638L61.1262 21.8408M61.1262 21.8408C61.0772 21.7277 61.0275 21.6172 60.9622 21.4721L61.1262 21.8408ZM40.103 45.0433L40.2717 44.8379C39.501 44.4351 38.7493 43.9744 38.0249 43.4554C37.5643 43.1254 37.1147 42.7719 36.6783 42.3949C28.6207 35.4828 27.5801 23.2097 34.3306 14.9752C41.0929 6.71401 53.1211 5.63562 61.1808 12.5721L61.1818 12.573C61.9673 13.2508 62.6875 13.9794 63.3407 14.7504C63.901 15.4119 64.4119 16.1044 64.8724 16.8227L65.0151 16.6476L65.6808 18.1198L66.1213 19.0943L66.122 19.0958L66.1435 19.1435L66.1435 19.1436L66.1446 19.1459C66.2063 19.2828 66.2712 19.4271 66.3364 19.5772L84.556 60.0679L85.5463 62.2687L83.2896 61.4133L41.4052 45.5369L40.103 45.0433Z" stroke="#E325DC" stroke-width="2"/>
</g>
<g filter="url(#filter2_d_761_17097)">
<rect x="79.7842" y="109.383" width="6.43478" height="61.7739" fill="white"/>
<rect x="78.7842" y="108.383" width="8.43478" height="63.7739" stroke="#E325DC" stroke-width="2"/>
</g>
<g filter="url(#filter3_d_761_17097)">
<rect x="79.7842" y="63.052" width="6.43478" height="21.8783" fill="white"/>
<rect x="78.7842" y="62.052" width="8.43478" height="23.8783" stroke="#E325DC" stroke-width="2"/>
</g>
<g filter="url(#filter4_d_761_17097)">
<path fill-rule="evenodd" clip-rule="evenodd" d="M147.991 59.1916H18.0087C16.5872 59.1916 15.4348 60.344 15.4348 61.7655V84.9307C15.4348 86.3523 16.5872 87.5047 18.0087 87.5047H147.991C149.413 87.5047 150.565 86.3523 150.565 84.9307V61.7655C150.565 60.344 149.413 59.1916 147.991 59.1916ZM18.0087 52.7568C13.0333 52.7568 9 56.7902 9 61.7655V84.9307C9 89.9061 13.0333 93.9394 18.0087 93.9394H147.991C152.967 93.9394 157 89.9061 157 84.9307V61.7655C157 56.7902 152.967 52.7568 147.991 52.7568H18.0087Z" fill="white"/>
<path d="M18.0087 60.1916H147.991C148.861 60.1916 149.565 60.8963 149.565 61.7655V84.9307C149.565 85.8 148.861 86.5047 147.991 86.5047H18.0087C17.1394 86.5047 16.4348 85.8 16.4348 84.9307V61.7655C16.4348 60.8963 17.1394 60.1916 18.0087 60.1916ZM18.0087 51.7568C12.481 51.7568 8 56.2379 8 61.7655V84.9307C8 90.4584 12.481 94.9394 18.0087 94.9394H147.991C153.519 94.9394 158 90.4584 158 84.9307V61.7655C158 56.2379 153.519 51.7568 147.991 51.7568H18.0087Z" stroke="#E325DC" stroke-width="2"/>
</g>
<g filter="url(#filter5_d_761_17097)">
<path fill-rule="evenodd" clip-rule="evenodd" d="M136.41 106.809H30.8795C25.9041 106.809 21.8708 110.842 21.8708 115.818V166.009C21.8708 170.984 25.9041 175.018 30.8795 175.018H136.41C141.385 175.018 145.419 170.984 145.419 166.009V115.818C145.419 110.842 141.385 106.809 136.41 106.809ZM30.8795 100.374C22.3503 100.374 15.436 107.288 15.436 115.818V166.009C15.436 174.538 22.3503 181.452 30.8795 181.452H136.41C144.939 181.452 151.853 174.538 151.853 166.009V115.818C151.853 107.288 144.939 100.374 136.41 100.374H30.8795Z" fill="white"/>
<path d="M30.8795 107.809H136.41C140.833 107.809 144.419 111.394 144.419 115.818V166.009C144.419 170.432 140.833 174.018 136.41 174.018H30.8795C26.4564 174.018 22.8708 170.432 22.8708 166.009V115.818C22.8708 111.394 26.4564 107.809 30.8795 107.809ZM30.8795 99.374C21.798 99.374 14.436 106.736 14.436 115.818V166.009C14.436 175.09 21.798 182.452 30.8795 182.452H136.41C145.491 182.452 152.853 175.09 152.853 166.009V115.818C152.853 106.736 145.491 99.374 136.41 99.374H30.8795Z" stroke="#E325DC" stroke-width="2"/>
</g>
<defs>
<filter id="filter0_d_761_17097" x="71.5513" y="-0.000244141" width="72.5698" height="71.0596" filterUnits="userSpaceOnUse" color-interpolation-filters="sRGB">
<feFlood flood-opacity="0" result="BackgroundImageFix"/>
<feColorMatrix in="SourceAlpha" type="matrix" values="0 0 0 0 0 0 0 0 0 0 0 0 0 0 0 0 0 0 127 0" result="hardAlpha"/>
<feOffset/>
<feGaussianBlur stdDeviation="3.5"/>
<feComposite in2="hardAlpha" operator="out"/>
<feColorMatrix type="matrix" values="0 0 0 0 1 0 0 0 0 0.8875 0 0 0 0 0.995575 0 0 0 0.52 0"/>
<feBlend mode="normal" in2="BackgroundImageFix" result="effect1_dropShadow_761_17097"/>
<feBlend mode="normal" in="SourceGraphic" in2="effect1_dropShadow_761_17097" result="shape"/>
</filter>
<filter id="filter1_d_761_17097" x="21.8789" y="-0.000244141" width="72.5698" height="71.0596" filterUnits="userSpaceOnUse" color-interpolation-filters="sRGB">
<feFlood flood-opacity="0" result="BackgroundImageFix"/>
<feColorMatrix in="SourceAlpha" type="matrix" values="0 0 0 0 0 0 0 0 0 0 0 0 0 0 0 0 0 0 127 0" result="hardAlpha"/>
<feOffset/>
<feGaussianBlur stdDeviation="3.5"/>
<feComposite in2="hardAlpha" operator="out"/>
<feColorMatrix type="matrix" values="0 0 0 0 1 0 0 0 0 0.8875 0 0 0 0 0.995575 0 0 0 0.52 0"/>
<feBlend mode="normal" in2="BackgroundImageFix" result="effect1_dropShadow_761_17097"/>
<feBlend mode="normal" in="SourceGraphic" in2="effect1_dropShadow_761_17097" result="shape"/>
</filter>
<filter id="filter2_d_761_17097" x="70.7842" y="100.383" width="24.4346" height="79.7739" filterUnits="userSpaceOnUse" color-interpolation-filters="sRGB">
<feFlood flood-opacity="0" result="BackgroundImageFix"/>
<feColorMatrix in="SourceAlpha" type="matrix" values="0 0 0 0 0 0 0 0 0 0 0 0 0 0 0 0 0 0 127 0" result="hardAlpha"/>
<feOffset/>
<feGaussianBlur stdDeviation="3.5"/>
<feComposite in2="hardAlpha" operator="out"/>
<feColorMatrix type="matrix" values="0 0 0 0 1 0 0 0 0 0.8875 0 0 0 0 0.995575 0 0 0 0.52 0"/>
<feBlend mode="normal" in2="BackgroundImageFix" result="effect1_dropShadow_761_17097"/>
<feBlend mode="normal" in="SourceGraphic" in2="effect1_dropShadow_761_17097" result="shape"/>
</filter>
<filter id="filter3_d_761_17097" x="70.7842" y="54.052" width="24.4346" height="39.8782" filterUnits="userSpaceOnUse" color-interpolation-filters="sRGB">
<feFlood flood-opacity="0" result="BackgroundImageFix"/>
<feColorMatrix in="SourceAlpha" type="matrix" values="0 0 0 0 0 0 0 0 0 0 0 0 0 0 0 0 0 0 127 0" result="hardAlpha"/>
<feOffset/>
<feGaussianBlur stdDeviation="3.5"/>
<feComposite in2="hardAlpha" operator="out"/>
<feColorMatrix type="matrix" values="0 0 0 0 1 0 0 0 0 0.8875 0 0 0 0 0.995575 0 0 0 0.52 0"/>
<feBlend mode="normal" in2="BackgroundImageFix" result="effect1_dropShadow_761_17097"/>
<feBlend mode="normal" in="SourceGraphic" in2="effect1_dropShadow_761_17097" result="shape"/>
</filter>
<filter id="filter4_d_761_17097" x="0" y="43.7568" width="166" height="59.1826" filterUnits="userSpaceOnUse" color-interpolation-filters="sRGB">
<feFlood flood-opacity="0" result="BackgroundImageFix"/>
<feColorMatrix in="SourceAlpha" type="matrix" values="0 0 0 0 0 0 0 0 0 0 0 0 0 0 0 0 0 0 127 0" result="hardAlpha"/>
<feOffset/>
<feGaussianBlur stdDeviation="3.5"/>
<feComposite in2="hardAlpha" operator="out"/>
<feColorMatrix type="matrix" values="0 0 0 0 1 0 0 0 0 0.8875 0 0 0 0 0.995575 0 0 0 0.52 0"/>
<feBlend mode="normal" in2="BackgroundImageFix" result="effect1_dropShadow_761_17097"/>
<feBlend mode="normal" in="SourceGraphic" in2="effect1_dropShadow_761_17097" result="shape"/>
</filter>
<filter id="filter5_d_761_17097" x="6.43604" y="91.374" width="154.417" height="99.0784" filterUnits="userSpaceOnUse" color-interpolation-filters="sRGB">
<feFlood flood-opacity="0" result="BackgroundImageFix"/>
<feColorMatrix in="SourceAlpha" type="matrix" values="0 0 0 0 0 0 0 0 0 0 0 0 0 0 0 0 0 0 127 0" result="hardAlpha"/>
<feOffset/>
<feGaussianBlur stdDeviation="3.5"/>
<feComposite in2="hardAlpha" operator="out"/>
<feColorMatrix type="matrix" values="0 0 0 0 1 0 0 0 0 0.8875 0 0 0 0 0.995575 0 0 0 0.52 0"/>
<feBlend mode="normal" in2="BackgroundImageFix" result="effect1_dropShadow_761_17097"/>
<feBlend mode="normal" in="SourceGraphic" in2="effect1_dropShadow_761_17097" result="shape"/>
</filter>
</defs>
</svg>
