<svg width="12" height="12" viewBox="0 0 12 12" fill="none" xmlns="http://www.w3.org/2000/svg">
<g clip-path="url(#clip0_983_6057)">
<path d="M4.32539 5.10234C6.63633 5.10234 8.51016 4.35234 8.51016 3.42773V2.17266C8.51016 1.24805 6.63633 0.498047 4.32539 0.498047C2.01445 0.498047 0.140625 1.24805 0.140625 2.17266V3.42773C0.140625 4.35234 2.01445 5.10234 4.32539 5.10234ZM9.34805 5.58047C7.96055 5.58047 6.83672 6.03047 6.83672 6.58477V7.33828C6.83672 7.89258 7.96055 8.34258 9.34805 8.34258C10.7355 8.34258 11.8594 7.89258 11.8594 7.33828V6.58477C11.8594 6.0293 10.7355 5.58047 9.34805 5.58047ZM9.34805 8.64258C7.96055 8.64258 6.83672 8.19258 6.83672 7.63828V8.39062C6.83672 8.94492 7.96055 9.39492 9.34805 9.39492C10.7355 9.39492 11.8594 8.94609 11.8594 8.39062V7.63711C11.8594 8.19258 10.7355 8.64258 9.34805 8.64258ZM9.34805 9.69492C7.96055 9.69492 6.83672 9.24492 6.83672 8.69062V9.44414C6.83672 9.99844 7.96055 10.4484 9.34805 10.4484C10.7355 10.4484 11.8594 9.99844 11.8594 9.44414V8.69062C11.8594 9.24492 10.7355 9.69492 9.34805 9.69492ZM9.34805 10.7484C7.96055 10.7484 6.83672 10.2984 6.83672 9.74414V10.4977C6.83672 11.052 7.96055 11.502 9.34805 11.502C10.7355 11.502 11.8594 11.052 11.8594 10.4977V9.74414C11.8594 10.2984 10.7355 10.7484 9.34805 10.7484ZM8.51133 4.16602C8.51133 5.09062 6.6375 5.84062 4.32656 5.84062C2.01445 5.84062 0.141797 5.09062 0.141797 4.16602V5.42109C0.141797 6.3457 2.01563 7.0957 4.32656 7.0957C5.03086 7.09922 5.73281 7.02305 6.41953 6.86953V6.25898H6.43828C6.53438 5.79844 7.39336 5.42812 8.5125 5.35312V4.16602H8.51133ZM0.140625 6.15937V7.41445C0.140625 8.33906 2.01445 9.08906 4.32539 9.08906C5.02969 9.09258 5.73164 9.01641 6.41836 8.86289V7.60781C5.73164 7.76133 5.02969 7.8375 4.32539 7.83398C2.01445 7.83398 0.140625 7.08398 0.140625 6.15937ZM0.140625 8.15391V9.40899C0.140625 10.3336 2.01445 11.0836 4.32539 11.0836C5.02969 11.0871 5.73164 11.0109 6.41836 10.8574V9.60117C5.73164 9.75469 5.02969 9.83086 4.32539 9.82734C2.01445 9.82734 0.140625 9.07852 0.140625 8.15391Z" fill="#FFC300"/>
</g>
<defs>
<clipPath id="clip0_983_6057">
<rect width="12" height="12" fill="white"/>
</clipPath>
</defs>
</svg>
