<svg width="222" height="189" viewBox="0 0 222 189" fill="none" xmlns="http://www.w3.org/2000/svg">
<g filter="url(#filter0_d_761_17396)">
<mask id="path-1-outside-1_761_17396" maskUnits="userSpaceOnUse" x="22.9527" y="33.5162" width="172.555" height="144.663" fill="black">
<rect fill="white" x="22.9527" y="33.5162" width="172.555" height="144.663"/>
<path fill-rule="evenodd" clip-rule="evenodd" d="M109.341 35.8477C107.859 35.8418 106.396 36.1945 105.075 36.8765C103.754 37.5585 102.613 38.5502 101.746 39.769L68.9211 85.9551L38.8459 70.5651C37.2771 69.7632 35.5164 69.4274 33.7671 69.5963C32.0179 69.7653 30.3514 70.4321 28.96 71.5198C27.5686 72.6075 26.5091 74.0718 25.9036 75.7437C25.2982 77.4155 25.1716 79.2267 25.5385 80.9682L43.8366 167.909C44.2809 170.016 45.4229 171.905 47.0731 173.264C48.7233 174.622 50.7824 175.368 52.9085 175.377L164.71 175.808C166.837 175.816 168.902 175.085 170.563 173.738C172.224 172.391 173.38 170.508 173.839 168.403L192.808 81.6066C193.187 79.8685 193.073 78.0574 192.479 76.3822C191.886 74.707 190.838 73.2358 189.455 72.1384C188.073 71.041 186.412 70.3621 184.665 70.1799C182.918 69.9976 181.156 70.3196 179.581 71.1085L149.373 86.2658L116.914 39.8352C116.056 38.6072 114.922 37.6047 113.605 36.9111C112.287 36.2175 110.826 35.8529 109.341 35.8477ZM182.999 77.922C182.998 77.9224 182.997 77.9228 182.996 77.9232L146.902 96.0341L110.664 44.199C110.499 43.9622 110.287 43.7787 110.053 43.6556C109.82 43.5327 109.567 43.471 109.315 43.4701L109.311 43.4701C109.059 43.4691 108.806 43.5288 108.572 43.6496C108.338 43.7703 108.126 43.9509 107.959 44.1848C107.959 44.185 107.959 44.1845 107.959 44.1848C107.959 44.1853 107.958 44.1865 107.957 44.1871L71.3161 95.7433L35.377 77.3524C35.3764 77.3522 35.3775 77.3527 35.377 77.3524C35.1005 77.2115 34.7964 77.1549 34.4999 77.1835C34.2025 77.2122 33.9089 77.3263 33.6546 77.525C33.3994 77.7246 33.1921 78.0038 33.0707 78.339C32.949 78.675 32.9227 79.0431 32.9973 79.3971L51.2951 166.336C51.3854 166.764 51.6137 167.129 51.9177 167.379C52.2196 167.627 52.5809 167.753 52.9402 167.754L164.736 168.186C165.095 168.187 165.457 168.064 165.761 167.818C166.067 167.57 166.298 167.207 166.392 166.779L166.392 166.776L185.36 79.9846C185.437 79.6314 185.413 79.2632 185.294 78.9266C185.175 78.5907 184.97 78.3102 184.716 78.1089C184.464 77.9084 184.171 77.7922 183.874 77.7612C183.578 77.7304 183.276 77.7837 182.999 77.922Z"/>
</mask>
<path fill-rule="evenodd" clip-rule="evenodd" d="M109.341 35.8477C107.859 35.8418 106.396 36.1945 105.075 36.8765C103.754 37.5585 102.613 38.5502 101.746 39.769L68.9211 85.9551L38.8459 70.5651C37.2771 69.7632 35.5164 69.4274 33.7671 69.5963C32.0179 69.7653 30.3514 70.4321 28.96 71.5198C27.5686 72.6075 26.5091 74.0718 25.9036 75.7437C25.2982 77.4155 25.1716 79.2267 25.5385 80.9682L43.8366 167.909C44.2809 170.016 45.4229 171.905 47.0731 173.264C48.7233 174.622 50.7824 175.368 52.9085 175.377L164.71 175.808C166.837 175.816 168.902 175.085 170.563 173.738C172.224 172.391 173.38 170.508 173.839 168.403L192.808 81.6066C193.187 79.8685 193.073 78.0574 192.479 76.3822C191.886 74.707 190.838 73.2358 189.455 72.1384C188.073 71.041 186.412 70.3621 184.665 70.1799C182.918 69.9976 181.156 70.3196 179.581 71.1085L149.373 86.2658L116.914 39.8352C116.056 38.6072 114.922 37.6047 113.605 36.9111C112.287 36.2175 110.826 35.8529 109.341 35.8477ZM182.999 77.922C182.998 77.9224 182.997 77.9228 182.996 77.9232L146.902 96.0341L110.664 44.199C110.499 43.9622 110.287 43.7787 110.053 43.6556C109.82 43.5327 109.567 43.471 109.315 43.4701L109.311 43.4701C109.059 43.4691 108.806 43.5288 108.572 43.6496C108.338 43.7703 108.126 43.9509 107.959 44.1848C107.959 44.185 107.959 44.1845 107.959 44.1848C107.959 44.1853 107.958 44.1865 107.957 44.1871L71.3161 95.7433L35.377 77.3524C35.3764 77.3522 35.3775 77.3527 35.377 77.3524C35.1005 77.2115 34.7964 77.1549 34.4999 77.1835C34.2025 77.2122 33.9089 77.3263 33.6546 77.525C33.3994 77.7246 33.1921 78.0038 33.0707 78.339C32.949 78.675 32.9227 79.0431 32.9973 79.3971L51.2951 166.336C51.3854 166.764 51.6137 167.129 51.9177 167.379C52.2196 167.627 52.5809 167.753 52.9402 167.754L164.736 168.186C165.095 168.187 165.457 168.064 165.761 167.818C166.067 167.57 166.298 167.207 166.392 166.779L166.392 166.776L185.36 79.9846C185.437 79.6314 185.413 79.2632 185.294 78.9266C185.175 78.5907 184.97 78.3102 184.716 78.1089C184.464 77.9084 184.171 77.7922 183.874 77.7612C183.578 77.7304 183.276 77.7837 182.999 77.922Z" fill="white"/>
<path d="M109.341 35.8477L109.335 37.3477L109.336 37.3477L109.341 35.8477ZM105.075 36.8765L105.763 38.2093L105.763 38.2093L105.075 36.8765ZM101.746 39.769L100.524 38.8996L100.523 38.9001L101.746 39.769ZM68.9211 85.9551L68.2378 87.2905L69.3924 87.8813L70.1438 86.8241L68.9211 85.9551ZM38.8459 70.5651L39.5292 69.2297L39.5286 69.2294L38.8459 70.5651ZM33.7671 69.5963L33.9113 71.0894L33.9113 71.0894L33.7671 69.5963ZM28.96 71.5198L28.0362 70.3381L28.0362 70.3381L28.96 71.5198ZM25.9036 75.7437L24.4933 75.2329L24.4933 75.2329L25.9036 75.7437ZM25.5385 80.9682L27.0063 80.6593L27.0063 80.6591L25.5385 80.9682ZM43.8366 167.909L42.3687 168.218L42.3689 168.218L43.8366 167.909ZM52.9085 175.377L52.9023 176.877L52.9027 176.877L52.9085 175.377ZM164.71 175.808L164.704 177.308L164.705 177.308L164.71 175.808ZM170.563 173.738L171.508 174.903L170.563 173.738ZM173.839 168.403L172.374 168.083L172.374 168.083L173.839 168.403ZM192.808 81.6066L194.274 81.9269L194.274 81.9258L192.808 81.6066ZM192.479 76.3822L193.893 75.8815L192.479 76.3822ZM189.455 72.1384L188.523 73.3133L188.523 73.3133L189.455 72.1384ZM184.665 70.1799L184.509 71.6718L184.665 70.1799ZM179.581 71.1085L178.909 69.7675L178.909 69.7678L179.581 71.1085ZM149.373 86.2658L148.144 87.1253L148.887 88.1881L150.046 87.6065L149.373 86.2658ZM116.914 39.8352L115.684 40.6939L115.684 40.6946L116.914 39.8352ZM113.605 36.9111L114.303 35.5838L114.303 35.5838L113.605 36.9111ZM182.996 77.9232L182.324 76.5823L182.324 76.5825L182.996 77.9232ZM182.999 77.922L182.329 76.5799L182.326 76.5811L182.999 77.922ZM146.902 96.0341L145.672 96.8936L146.415 97.9564L147.575 97.3748L146.902 96.0341ZM110.664 44.199L109.434 45.0577L109.434 45.0584L110.664 44.199ZM110.053 43.6556L110.752 42.3284L110.752 42.3284L110.053 43.6556ZM109.315 43.4701L109.309 44.9701L109.309 44.9701L109.315 43.4701ZM109.311 43.4701L109.305 44.9701L109.306 44.9701L109.311 43.4701ZM108.572 43.6496L107.884 42.3167L107.884 42.3167L108.572 43.6496ZM107.957 44.1871L109.18 45.056L109.185 45.0498L107.957 44.1871ZM71.3161 95.7433L70.6328 97.0786L71.7874 97.6694L72.5388 96.6122L71.3161 95.7433ZM34.4999 77.1835L34.3557 75.6905L34.3557 75.6905L34.4999 77.1835ZM33.6546 77.525L32.7308 76.3433L32.7308 76.3433L33.6546 77.525ZM33.0707 78.339L34.4811 78.8498L33.0707 78.339ZM32.9973 79.3971L34.4651 79.0882L34.4651 79.0879L32.9973 79.3971ZM51.2951 166.336L49.8272 166.645L49.8274 166.645L51.2951 166.336ZM51.9177 167.379L50.9643 168.537L50.9643 168.537L51.9177 167.379ZM52.9402 167.754L52.934 169.254L52.9344 169.254L52.9402 167.754ZM164.736 168.186L164.73 169.686L164.731 169.686L164.736 168.186ZM165.761 167.818L166.706 168.983L166.706 168.983L165.761 167.818ZM166.392 166.779L167.857 167.098L167.858 167.096L166.392 166.779ZM166.392 166.776L164.927 166.455L164.926 166.458L166.392 166.776ZM185.36 79.9846L186.826 80.3049L186.826 80.3038L185.36 79.9846ZM185.294 78.9266L183.88 79.4273L183.88 79.4274L185.294 78.9266ZM184.716 78.1089L185.649 76.934L185.649 76.934L184.716 78.1089ZM183.874 77.7612L183.719 79.2531L183.719 79.2531L183.874 77.7612ZM109.347 34.3477C107.623 34.3408 105.922 34.7512 104.387 35.5436L105.763 38.2093C106.871 37.6378 108.095 37.3427 109.335 37.3477L109.347 34.3477ZM104.387 35.5436C102.852 36.336 101.528 37.4871 100.524 38.8996L102.968 40.6384C103.697 39.6132 104.656 38.781 105.763 38.2093L104.387 35.5436ZM100.523 38.9001L67.6985 85.0862L70.1438 86.8241L102.969 40.638L100.523 38.9001ZM69.6044 84.6198L39.5292 69.2297L38.1626 71.9004L68.2378 87.2905L69.6044 84.6198ZM39.5286 69.2294C37.7055 68.2976 35.658 67.9067 33.6229 68.1033L33.9113 71.0894C35.3748 70.948 36.8487 71.2288 38.1633 71.9007L39.5286 69.2294ZM33.6229 68.1033C31.588 68.2998 29.6513 69.0754 28.0362 70.3381L29.8838 72.7015C31.0515 71.7888 32.4478 71.2307 33.9113 71.0894L33.6229 68.1033ZM28.0362 70.3381C26.4212 71.6006 25.1939 73.2981 24.4933 75.2329L27.314 76.2544C27.8242 74.8456 28.716 73.6145 29.8838 72.7015L28.0362 70.3381ZM24.4933 75.2329C23.7927 77.1677 23.6463 79.2628 24.0707 81.2774L27.0063 80.6591C26.6969 79.1906 26.8038 77.6633 27.314 76.2544L24.4933 75.2329ZM24.0706 81.2772L42.3687 168.218L45.3044 167.6L27.0063 80.6593L24.0706 81.2772ZM42.3689 168.218C42.8828 170.655 44.2047 172.845 46.1198 174.422L48.0265 172.106C46.6412 170.965 45.679 169.376 45.3043 167.599L42.3689 168.218ZM46.1198 174.422C48.0353 175.999 50.4285 176.866 52.9023 176.877L52.9147 173.877C51.1363 173.869 49.4114 173.246 48.0265 172.106L46.1198 174.422ZM52.9027 176.877L164.704 177.308L164.716 174.308L52.9143 173.877L52.9027 176.877ZM164.705 177.308C167.18 177.317 169.58 176.466 171.508 174.903L169.618 172.573C168.225 173.703 166.494 174.314 164.715 174.308L164.705 177.308ZM171.508 174.903C173.436 173.339 174.774 171.158 175.305 168.723L172.374 168.083C171.986 169.858 171.013 171.442 169.618 172.573L171.508 174.903ZM175.305 168.723L194.274 81.9269L191.343 81.2863L172.374 168.083L175.305 168.723ZM194.274 81.9258C194.712 79.9151 194.58 77.8201 193.893 75.8815L191.065 76.8829C191.565 78.2947 191.662 79.8218 191.342 81.2874L194.274 81.9258ZM193.893 75.8815C193.207 73.9427 191.993 72.2373 190.388 70.9635L188.523 73.3133C189.683 74.2344 190.566 75.4712 191.065 76.8829L193.893 75.8815ZM190.388 70.9635C188.783 69.6897 186.853 68.9 184.821 68.688L184.509 71.6718C185.971 71.8242 187.362 72.3924 188.523 73.3133L190.388 70.9635ZM184.821 68.688C182.788 68.476 180.739 68.8507 178.909 69.7675L180.253 72.4495C181.573 71.7885 183.048 71.5193 184.509 71.6718L184.821 68.688ZM178.909 69.7678L148.701 84.9251L150.046 87.6065L180.254 72.4492L178.909 69.7678ZM150.603 85.4064L118.143 38.9757L115.684 40.6946L148.144 87.1253L150.603 85.4064ZM118.143 38.9764C117.15 37.5534 115.834 36.3897 114.303 35.5838L112.906 38.2383C114.01 38.8196 114.963 39.661 115.684 40.6939L118.143 38.9764ZM114.303 35.5838C112.773 34.7779 111.073 34.3537 109.347 34.3477L109.336 37.3477C110.578 37.352 111.802 37.657 112.906 38.2383L114.303 35.5838ZM183.669 79.2642C183.669 79.264 183.669 79.2638 183.67 79.2636C183.67 79.2634 183.671 79.2632 183.671 79.263L182.326 76.5811C182.326 76.5813 182.326 76.5815 182.325 76.5817C182.325 76.5819 182.324 76.5821 182.324 76.5823L183.669 79.2642ZM109.354 44.9828C109.375 44.9938 109.405 45.0161 109.434 45.0577L111.894 43.3402C111.592 42.9083 111.199 42.5637 110.752 42.3284L109.354 44.9828ZM109.309 44.9701C109.319 44.9702 109.334 44.9723 109.354 44.9828L110.752 42.3284C110.305 42.0931 109.814 41.9719 109.32 41.9701L109.309 44.9701ZM109.306 44.9701L109.309 44.9701L109.32 41.9701L109.316 41.9701L109.306 44.9701ZM109.26 44.9824C109.28 44.9721 109.295 44.9701 109.305 44.9701L109.317 41.9701C108.823 41.9682 108.332 42.0855 107.884 42.3167L109.26 44.9824ZM109.18 45.0561C109.209 45.0151 109.239 44.9931 109.26 44.9824L107.884 42.3167C107.437 42.5474 107.043 42.8867 106.738 43.3135L109.18 45.0561ZM109.178 45.0588C109.178 45.0587 109.178 45.0587 109.178 45.0587C109.178 45.0586 109.178 45.0588 109.178 45.0587C109.178 45.0587 109.178 45.0587 109.178 45.0587L109.178 45.0587C109.178 45.0587 109.178 45.0587 109.178 45.0587C109.178 45.0587 109.178 45.0587 109.178 45.0587C109.178 45.0587 109.178 45.0587 109.178 45.0587C108.833 42.9656 106.74 43.3107 106.74 43.3107C106.74 43.3107 106.74 43.3107 106.74 43.3107C106.74 43.3107 106.74 43.3107 106.74 43.3107L106.74 43.3107C106.74 43.3107 106.74 43.3107 106.74 43.3107C106.74 43.3107 106.74 43.3107 106.74 43.3107C106.74 43.3107 106.74 43.3107 106.74 43.3107C106.74 43.3107 106.74 43.3107 106.74 43.3107C106.74 43.3107 106.74 43.3107 106.74 43.3107C106.74 43.3107 106.74 43.3107 106.74 43.3107C106.74 43.3107 106.74 43.3107 106.74 43.3107C106.74 43.3108 106.74 43.3107 106.74 43.3108C106.74 43.3108 106.74 43.3108 106.74 43.3108C106.74 43.3109 106.74 43.3108 106.74 43.3109C106.74 43.3109 106.74 43.3109 106.74 43.3109C106.74 43.3109 106.74 43.3109 106.74 43.3109C106.74 43.3109 106.74 43.3109 106.74 43.3108C106.74 43.3109 108.833 42.9658 109.178 45.0588C109.178 45.0588 109.178 45.0589 109.178 45.0589C109.178 45.0589 109.178 45.0589 109.178 45.0589C109.178 45.0588 109.178 45.0589 109.178 45.0588C109.178 45.0588 109.178 45.0588 109.178 45.0588L106.74 43.3108C106.74 43.3108 106.74 43.3108 106.74 43.3108C106.74 43.3109 106.74 43.3108 106.74 43.3109C106.74 43.3109 106.74 43.3109 106.74 43.3109C106.74 43.3109 106.74 43.3109 106.74 43.3109C106.74 43.3109 106.74 43.3109 106.74 43.3109C106.74 43.3109 106.74 43.3109 106.74 43.3109C106.74 43.3109 106.74 43.3109 106.74 43.3109C106.74 43.3109 106.74 43.3109 106.74 43.3109C107.085 45.4039 109.178 45.0589 109.178 45.0588C109.178 45.0589 109.178 45.0589 109.178 45.0588C109.178 45.0589 109.178 45.0589 109.178 45.0589L109.178 45.0589C109.178 45.0588 109.178 45.0589 109.178 45.0588C109.178 45.0588 109.178 45.0588 109.178 45.0588C109.178 45.0588 109.178 45.0588 109.178 45.0588C109.178 45.0588 109.178 45.0588 109.178 45.0588C109.178 45.0588 109.178 45.0588 109.178 45.0588C109.178 45.0588 109.178 45.0588 109.178 45.0588C109.178 45.0587 109.178 45.0588 109.178 45.0587C109.178 45.0587 109.178 45.0587 109.178 45.0587C109.178 45.0587 109.178 45.0587 109.178 45.0587C109.178 45.0587 109.178 45.0587 109.178 45.0587C109.178 45.0587 109.178 45.0587 109.178 45.0587C109.178 45.0587 107.085 45.4038 106.74 43.3107C106.74 43.3107 106.74 43.3107 106.74 43.3107C106.74 43.3107 106.74 43.3107 106.74 43.3107C106.74 43.3108 106.74 43.3107 106.74 43.3107C106.74 43.3107 106.74 43.3108 106.74 43.3108L109.178 45.0588ZM109.185 45.0498C109.183 45.052 109.182 45.0538 109.181 45.0546C109.18 45.0556 109.18 45.0563 109.18 45.0567C109.179 45.0574 109.179 45.0579 109.179 45.0575C109.179 45.0575 109.18 45.0566 109.18 45.0556C109.181 45.0551 109.181 45.0542 109.182 45.0532C109.183 45.0522 109.184 45.0504 109.186 45.0482L106.733 43.3214C106.734 43.3193 106.735 43.3176 106.736 43.3168C106.736 43.316 106.737 43.3153 106.737 43.3149C106.737 43.3144 106.738 43.3139 106.738 43.3143C106.737 43.3144 106.737 43.3154 106.736 43.3164C106.736 43.317 106.735 43.3179 106.734 43.3191C106.733 43.3201 106.732 43.322 106.73 43.3244L109.185 45.0498ZM34.6911 78.6865C34.6912 78.6865 34.6914 78.6866 34.6916 78.6867C34.6917 78.6867 34.6918 78.6868 34.6919 78.6869C34.692 78.6869 34.6925 78.6872 34.6932 78.6875C34.6934 78.6876 34.6938 78.6878 34.6943 78.6881C34.6945 78.6882 34.6957 78.6888 34.6973 78.6896C34.6979 78.6899 34.7001 78.6911 34.703 78.6925C34.7047 78.6934 34.7095 78.6958 34.7126 78.6973C34.72 78.7009 34.7661 78.7224 34.8052 78.7392C36.7138 78.0331 36.1303 76.0553 36.0979 76.0371C36.0911 76.0333 36.0812 76.0281 36.0783 76.0265C36.0766 76.0256 36.0739 76.0242 36.0728 76.0236C36.0721 76.0232 36.0708 76.0226 36.0703 76.0223C36.0683 76.0213 36.0668 76.0205 36.0666 76.0204C36.0661 76.0201 36.0657 76.0199 36.0654 76.0198C36.065 76.0196 36.0647 76.0194 36.0645 76.0193C36.0642 76.0192 36.064 76.019 36.0639 76.019C36.0638 76.0189 36.0637 76.0189 36.0637 76.0189C36.0635 76.0188 36.0635 76.0188 36.0634 76.0187C36.0633 76.0187 36.0632 76.0186 36.0631 76.0186C36.063 76.0186 36.0629 76.0185 36.0628 76.0184C36.0628 76.0184 36.0627 76.0184 36.0626 76.0183C36.0625 76.0183 36.0625 76.0182 36.0623 76.0182C36.0623 76.0181 36.062 76.018 36.0617 76.0179C36.0616 76.0178 36.0613 76.0176 36.0608 76.0174C36.0606 76.0173 36.0602 76.0171 36.0597 76.0168C36.0594 76.0167 36.058 76.0159 36.0561 76.015C36.0556 76.0147 36.0544 76.0141 36.0537 76.0138C36.0527 76.0133 36.0501 76.012 36.0485 76.0112C36.0458 76.0098 36.0371 76.0055 36.0312 76.0026C36.0077 75.9915 34.0666 76.6221 34.5296 78.5902C34.5891 78.6289 34.659 78.6695 34.6676 78.6741C34.6711 78.676 34.6764 78.6788 34.6782 78.6798C34.6812 78.6814 34.6836 78.6826 34.6841 78.6829C34.6858 78.6837 34.687 78.6844 34.6873 78.6845C34.6878 78.6847 34.6881 78.6849 34.6884 78.685C34.689 78.6854 34.6896 78.6857 34.6896 78.6857C34.6898 78.6858 34.6899 78.6858 34.69 78.6859C34.6902 78.686 34.6904 78.6861 34.6905 78.6861L36.0634 76.0188C36.0634 76.0187 36.0635 76.0188 36.0637 76.0189C36.0637 76.0189 36.0639 76.019 36.064 76.019C36.064 76.0191 36.0646 76.0193 36.0653 76.0197C36.0655 76.0198 36.0658 76.02 36.0663 76.0202C36.0666 76.0204 36.0679 76.021 36.0695 76.0219C36.07 76.0221 36.0724 76.0234 36.0754 76.025C36.0772 76.0259 36.0825 76.0288 36.086 76.0306C36.0946 76.0353 36.1645 76.0758 36.224 76.1145C36.687 78.0826 34.7459 78.7132 34.7224 78.7021C34.7165 78.6992 34.7078 78.6949 34.7051 78.6935C34.7035 78.6928 34.7009 78.6915 34.6999 78.691C34.6992 78.6906 34.698 78.69 34.6975 78.6897C34.6956 78.6888 34.6942 78.688 34.6939 78.6879C34.6934 78.6877 34.693 78.6874 34.6928 78.6873C34.6924 78.6871 34.692 78.6869 34.6919 78.6869C34.6916 78.6867 34.6914 78.6866 34.6913 78.6866C34.6912 78.6865 34.6911 78.6865 34.6911 78.6864C34.691 78.6864 34.6909 78.6864 34.6909 78.6863C34.6908 78.6863 34.6908 78.6863 34.6908 78.6863C34.6908 78.6863 34.6907 78.6863 34.6907 78.6862C34.6907 78.6862 34.6906 78.6862 34.6905 78.6862C34.6905 78.6861 34.6904 78.6861 34.6903 78.686C34.6902 78.686 34.69 78.6859 34.6897 78.6857C34.6895 78.6857 34.6892 78.6855 34.6888 78.6853C34.6885 78.6851 34.6881 78.6849 34.6876 78.6847C34.6874 78.6845 34.6859 78.6838 34.6839 78.6828C34.6834 78.6825 34.6821 78.6818 34.6814 78.6814C34.6803 78.6809 34.6776 78.6794 34.6759 78.6786C34.673 78.677 34.6632 78.6717 34.6563 78.668C34.6239 78.6497 34.0404 76.6719 35.949 75.9658C35.9881 75.9826 36.0342 76.0041 36.0416 76.0077C36.0447 76.0093 36.0495 76.0117 36.0512 76.0125C36.0541 76.014 36.0563 76.0151 36.0569 76.0154C36.0585 76.0162 36.0597 76.0168 36.0599 76.017C36.0604 76.0172 36.0608 76.0174 36.061 76.0175C36.0617 76.0178 36.0622 76.0181 36.0622 76.0181C36.0624 76.0182 36.0625 76.0183 36.0626 76.0183C36.0628 76.0184 36.0629 76.0185 36.0628 76.0184L34.6911 78.6865ZM34.6441 78.6766C34.6538 78.6756 34.6718 78.6766 34.6957 78.6888L36.0582 76.0161C35.5292 75.7464 34.939 75.6341 34.3557 75.6905L34.6441 78.6766ZM34.5785 78.7068C34.6088 78.6831 34.6322 78.6777 34.6441 78.6766L34.3557 75.6905C33.7728 75.7468 33.209 75.9695 32.7308 76.3433L34.5785 78.7068ZM34.4811 78.8498C34.5071 78.7778 34.5466 78.7317 34.5785 78.7068L32.7308 76.3433C32.2522 76.7175 31.8771 77.2298 31.6603 77.8283L34.4811 78.8498ZM34.4651 79.0879C34.448 79.007 34.4546 78.9228 34.4811 78.8498L31.6603 77.8283C31.4435 78.4271 31.3974 79.0792 31.5295 79.7063L34.4651 79.0879ZM52.871 166.221C52.8315 166.188 52.7834 166.124 52.7628 166.026L49.8274 166.645C49.9875 167.405 50.3958 168.069 50.9643 168.537L52.871 166.221ZM52.9465 166.254C52.9393 166.254 52.9297 166.253 52.9178 166.249C52.9064 166.245 52.8903 166.237 52.871 166.221L50.9643 168.537C51.5319 169.004 52.2274 169.251 52.934 169.254L52.9465 166.254ZM164.741 166.686L52.946 166.254L52.9344 169.254L164.73 169.686L164.741 166.686ZM164.816 166.653C164.797 166.669 164.781 166.676 164.769 166.681C164.757 166.685 164.748 166.686 164.741 166.686L164.731 169.686C165.437 169.688 166.135 169.446 166.706 168.983L164.816 166.653ZM164.926 166.459C164.905 166.557 164.856 166.621 164.816 166.653L166.706 168.983C167.279 168.519 167.692 167.857 167.857 167.098L164.926 166.459ZM164.926 166.458L164.926 166.461L167.858 167.096L167.858 167.093L164.926 166.458ZM183.895 79.6644L164.927 166.455L167.858 167.096L186.826 80.3049L183.895 79.6644ZM183.88 79.4274C183.906 79.5006 183.912 79.5847 183.895 79.6655L186.826 80.3038C186.962 79.678 186.921 79.0259 186.708 78.4259L183.88 79.4274ZM183.784 79.2838C183.816 79.3089 183.855 79.3552 183.88 79.4273L186.708 78.4259C186.496 77.8262 186.125 77.3115 185.649 76.934L183.784 79.2838ZM183.719 79.2531C183.731 79.2544 183.754 79.2599 183.784 79.2838L185.649 76.934C185.174 76.5569 184.612 76.3301 184.03 76.2693L183.719 79.2531ZM183.669 79.2642C183.681 79.2581 183.69 79.2553 183.698 79.254C183.705 79.2527 183.712 79.2525 183.719 79.2531L184.03 76.2693C183.45 76.2088 182.861 76.3144 182.329 76.5799L183.669 79.2642ZM147.575 97.3748L183.669 79.2639L182.324 76.5825L146.229 94.6935L147.575 97.3748ZM109.434 45.0584L145.672 96.8936L148.131 95.1747L111.893 43.3395L109.434 45.0584ZM72.5388 96.6122L109.18 45.056L106.735 43.3181L70.0935 94.8743L72.5388 96.6122ZM34.6936 78.6878L70.6328 97.0786L71.9994 94.4079L36.0603 76.0171L34.6936 78.6878ZM52.7629 166.027L34.4651 79.0882L31.5295 79.706L49.8272 166.645L52.7629 166.027Z" fill="#E325DC" mask="url(#path-1-outside-1_761_17396)"/>
</g>
<g filter="url(#filter1_d_761_17396)">
<path fill-rule="evenodd" clip-rule="evenodd" d="M109.341 35.8477C107.859 35.8418 106.396 36.1945 105.075 36.8765C103.754 37.5585 102.613 38.5502 101.746 39.769L68.9211 85.9551L38.8459 70.5651C37.2771 69.7632 35.5164 69.4274 33.7671 69.5963C32.0179 69.7653 30.3514 70.4321 28.96 71.5198C27.5686 72.6075 26.5091 74.0718 25.9036 75.7437C25.2982 77.4155 25.1716 79.2267 25.5385 80.9682L43.8366 167.909C44.2809 170.016 45.4229 171.905 47.0731 173.264C48.7233 174.622 50.7824 175.368 52.9085 175.377L164.71 175.808C166.837 175.816 168.902 175.085 170.563 173.738C172.224 172.391 173.38 170.508 173.839 168.403L192.808 81.6066C193.187 79.8685 193.073 78.0574 192.479 76.3822C191.886 74.707 190.838 73.2358 189.455 72.1384C188.073 71.041 186.412 70.3621 184.665 70.1799C182.918 69.9976 181.156 70.3196 179.581 71.1085L149.373 86.2658L116.914 39.8352C116.056 38.6072 114.922 37.6047 113.605 36.9111C112.287 36.2175 110.826 35.8529 109.341 35.8477ZM182.999 77.922C182.998 77.9224 182.997 77.9228 182.996 77.9232L146.902 96.0341L110.664 44.199C110.499 43.9622 110.287 43.7787 110.053 43.6556C109.82 43.5327 109.567 43.471 109.315 43.4701L109.311 43.4701C109.059 43.4691 108.806 43.5288 108.572 43.6496C108.338 43.7703 108.126 43.9509 107.959 44.1848C107.959 44.185 107.959 44.1845 107.959 44.1848C107.959 44.1853 107.958 44.1865 107.957 44.1871L71.3161 95.7433L35.377 77.3524C35.3764 77.3522 35.3775 77.3527 35.377 77.3524C35.1005 77.2115 34.7964 77.1549 34.4999 77.1835C34.2025 77.2122 33.9089 77.3263 33.6546 77.525C33.3994 77.7246 33.1921 78.0038 33.0707 78.339C32.949 78.675 32.9227 79.0431 32.9973 79.3971L51.2951 166.336C51.3854 166.764 51.6137 167.129 51.9177 167.379C52.2196 167.627 52.5809 167.753 52.9402 167.754L164.736 168.186C165.095 168.187 165.457 168.064 165.761 167.818C166.067 167.57 166.298 167.207 166.392 166.779L166.392 166.776L185.36 79.9846C185.437 79.6314 185.413 79.2632 185.294 78.9266C185.175 78.5907 184.97 78.3102 184.716 78.1089C184.464 77.9084 184.171 77.7922 183.874 77.7612C183.578 77.7304 183.276 77.7837 182.999 77.922Z" fill="white"/>
</g>
<g filter="url(#filter2_d_761_17396)">
<path fill-rule="evenodd" clip-rule="evenodd" d="M207.065 64.1734C210.924 64.1883 214.064 61.0721 214.079 57.2131C214.094 53.3542 210.978 50.2138 207.119 50.1989C203.26 50.184 200.119 53.3002 200.105 57.1591C200.09 61.0181 203.206 64.1585 207.065 64.1734ZM207.051 67.667C212.84 67.6893 217.55 63.015 217.573 57.2266C217.595 51.4382 212.921 46.7276 207.132 46.7053C201.344 46.6829 196.633 51.3572 196.611 57.1457C196.589 62.9341 201.263 67.6446 207.051 67.667Z" fill="white"/>
<path d="M213.829 57.2121C213.815 60.933 210.787 63.9377 207.066 63.9234C203.345 63.909 200.34 60.881 200.355 57.1601C200.369 53.4392 203.397 50.4345 207.118 50.4489C210.839 50.4633 213.843 53.4913 213.829 57.2121ZM207.05 67.917C212.977 67.9399 217.8 63.1541 217.823 57.2276C217.845 51.3011 213.06 46.4782 207.133 46.4553C201.207 46.4324 196.384 51.2182 196.361 57.1447C196.338 63.0712 201.124 67.8941 207.05 67.917Z" stroke="#E325DC" stroke-width="0.5"/>
</g>
<path d="M213.329 57.2102C213.316 60.6549 210.512 63.4367 207.068 63.4234C203.623 63.4101 200.841 60.6068 200.855 57.162C200.868 53.7173 203.671 50.9356 207.116 50.9489C210.561 50.9622 213.342 53.7655 213.329 57.2102ZM207.048 68.417C213.251 68.4409 218.299 63.4321 218.323 57.2295C218.347 51.0269 213.338 45.9792 207.135 45.9553C200.932 45.9313 195.885 50.9401 195.861 57.1428C195.837 63.3454 200.846 68.393 207.048 68.417Z" fill="white" stroke="#E325DC" stroke-width="1.5"/>
<g filter="url(#filter3_d_761_17396)">
<path fill-rule="evenodd" clip-rule="evenodd" d="M109.404 21.8733C113.263 21.8882 116.403 18.772 116.418 14.9131C116.433 11.0541 113.317 7.91374 109.458 7.89884C105.599 7.88394 102.458 11.0002 102.443 14.8591C102.428 18.718 105.545 21.8584 109.404 21.8733ZM109.39 25.3669C115.179 25.3893 119.889 20.715 119.911 14.9265C119.934 9.13813 115.26 4.42757 109.471 4.40522C103.683 4.38287 98.9721 9.05719 98.9498 14.8456C98.9274 20.634 103.602 25.3446 109.39 25.3669Z" fill="white"/>
<path d="M116.168 14.9121C116.153 18.633 113.125 21.6377 109.405 21.6233C105.684 21.609 102.679 18.5809 102.693 14.8601C102.708 11.1392 105.736 8.13447 109.457 8.14884C113.178 8.1632 116.182 11.1912 116.168 14.9121ZM109.389 25.6169C115.316 25.6398 120.139 20.854 120.161 14.9275C120.184 9.00103 115.399 4.1781 109.472 4.15522C103.546 4.13233 98.7226 8.91815 98.6998 14.8446C98.6769 20.7711 103.463 25.5941 109.389 25.6169Z" stroke="#E325DC" stroke-width="0.5"/>
</g>
<path d="M115.668 14.9102C115.655 18.3549 112.851 21.1366 109.407 21.1233C105.962 21.11 103.18 18.3067 103.193 14.862C103.207 11.4173 106.01 8.63553 109.455 8.64883C112.899 8.66213 115.681 11.4654 115.668 14.9102ZM109.387 26.1169C115.59 26.1409 120.638 21.1321 120.661 14.9294C120.685 8.72682 115.677 3.67917 109.474 3.65522C103.271 3.63127 98.2237 8.64008 98.1998 14.8427C98.1758 21.0453 103.185 26.093 109.387 26.1169Z" fill="white" stroke="#E325DC" stroke-width="1.5"/>
<g filter="url(#filter4_d_761_17396)">
<path fill-rule="evenodd" clip-rule="evenodd" d="M14.9251 59.9385C18.7841 59.9534 21.9244 56.8372 21.9393 52.9782C21.9542 49.1193 18.838 45.9789 14.9791 45.964C11.1201 45.9491 7.97977 49.0653 7.96487 52.9243C7.94997 56.7832 11.0662 59.9236 14.9251 59.9385ZM14.9116 63.4321C20.7001 63.4545 25.4106 58.7802 25.433 52.9917C25.4553 47.2033 20.781 42.4928 14.9926 42.4704C9.20416 42.4481 4.4936 47.1224 4.47125 52.9108C4.4489 58.6992 9.12322 63.4098 14.9116 63.4321Z" fill="white"/>
<path d="M21.6893 52.9773C21.675 56.6982 18.647 59.7029 14.9261 59.6885C11.2052 59.6741 8.2005 56.6461 8.21487 52.9252C8.22923 49.2044 11.2572 46.1997 14.9781 46.214C18.699 46.2284 21.7037 49.2564 21.6893 52.9773ZM14.9107 63.6821C20.8372 63.705 25.6601 58.9192 25.683 52.9927C25.7059 47.0662 20.92 42.2433 14.9935 42.2204C9.06706 42.1975 4.24413 46.9833 4.22125 52.9098C4.19836 58.8363 8.98418 63.6592 14.9107 63.6821Z" stroke="#E325DC" stroke-width="0.5"/>
</g>
<path d="M21.1894 52.9753C21.1761 56.4201 18.3728 59.2018 14.928 59.1885C11.4833 59.1752 8.70156 56.3719 8.71486 52.9272C8.72816 49.4824 11.5315 46.7007 14.9762 46.714C18.4209 46.7273 21.2027 49.5306 21.1894 52.9753ZM14.9087 64.1821C21.1114 64.2061 26.159 59.1973 26.183 52.9946C26.2069 46.792 21.1981 41.7444 14.9955 41.7204C8.79285 41.6965 3.7452 46.7053 3.72125 52.9079C3.6973 59.1105 8.70611 64.1582 14.9087 64.1821Z" fill="white" stroke="#E325DC" stroke-width="1.5"/>
<g filter="url(#filter5_d_761_17396)">
<path fill-rule="evenodd" clip-rule="evenodd" d="M108.947 140.658C116.665 140.688 122.946 134.455 122.976 126.737C123.006 119.019 116.773 112.738 109.055 112.708C101.337 112.678 95.0556 118.911 95.0258 126.629C94.996 134.347 101.229 140.629 108.947 140.658ZM108.92 147.646C120.497 147.691 129.919 138.342 129.964 126.764C130.009 115.187 120.659 105.765 109.082 105.72C97.5045 105.676 88.0829 115.025 88.0382 126.602C87.9935 138.18 97.3426 147.601 108.92 147.646Z" fill="white"/>
<path d="M122.476 126.735C122.447 134.177 116.391 140.187 108.949 140.158C101.507 140.13 95.4971 134.073 95.5258 126.631C95.5545 119.189 101.611 113.179 109.053 113.208C116.495 113.237 122.505 119.293 122.476 126.735ZM108.918 148.146C120.772 148.192 130.418 138.62 130.464 126.766C130.51 114.912 120.937 105.266 109.084 105.22C97.2303 105.175 87.584 114.747 87.5382 126.6C87.4924 138.454 97.0645 148.1 108.918 148.146Z" stroke="#E325DC"/>
</g>
<g filter="url(#filter6_d_761_17396)">
<path fill-rule="evenodd" clip-rule="evenodd" d="M108.947 140.658C116.665 140.688 122.946 134.455 122.976 126.737C123.006 119.019 116.773 112.738 109.055 112.708C101.337 112.678 95.0556 118.911 95.0258 126.629C94.996 134.347 101.229 140.629 108.947 140.658ZM108.92 147.646C120.497 147.691 129.919 138.342 129.964 126.764C130.009 115.187 120.659 105.765 109.082 105.72C97.5045 105.676 88.0829 115.025 88.0382 126.602C87.9935 138.18 97.3426 147.601 108.92 147.646Z" fill="white"/>
</g>
<defs>
<filter id="filter0_d_761_17396" x="12.833" y="23.3477" width="192.694" height="164.961" filterUnits="userSpaceOnUse" color-interpolation-filters="sRGB">
<feFlood flood-opacity="0" result="BackgroundImageFix"/>
<feColorMatrix in="SourceAlpha" type="matrix" values="0 0 0 0 0 0 0 0 0 0 0 0 0 0 0 0 0 0 127 0" result="hardAlpha"/>
<feOffset/>
<feGaussianBlur stdDeviation="5.5"/>
<feComposite in2="hardAlpha" operator="out"/>
<feColorMatrix type="matrix" values="0 0 0 0 1 0 0 0 0 0.8875 0 0 0 0 0.995575 0 0 0 0.42 0"/>
<feBlend mode="normal" in2="BackgroundImageFix" result="effect1_dropShadow_761_17396"/>
<feBlend mode="normal" in="SourceGraphic" in2="effect1_dropShadow_761_17396" result="shape"/>
</filter>
<filter id="filter1_d_761_17396" x="19.333" y="29.8477" width="179.694" height="151.961" filterUnits="userSpaceOnUse" color-interpolation-filters="sRGB">
<feFlood flood-opacity="0" result="BackgroundImageFix"/>
<feColorMatrix in="SourceAlpha" type="matrix" values="0 0 0 0 0 0 0 0 0 0 0 0 0 0 0 0 0 0 127 0" result="hardAlpha"/>
<feOffset/>
<feGaussianBlur stdDeviation="3"/>
<feComposite in2="hardAlpha" operator="out"/>
<feColorMatrix type="matrix" values="0 0 0 0 1 0 0 0 0 1 0 0 0 0 1 0 0 0 0.14 0"/>
<feBlend mode="normal" in2="BackgroundImageFix" result="effect1_dropShadow_761_17396"/>
<feBlend mode="normal" in="SourceGraphic" in2="effect1_dropShadow_761_17396" result="shape"/>
</filter>
<filter id="filter2_d_761_17396" x="193.11" y="43.2051" width="27.9619" height="27.9619" filterUnits="userSpaceOnUse" color-interpolation-filters="sRGB">
<feFlood flood-opacity="0" result="BackgroundImageFix"/>
<feColorMatrix in="SourceAlpha" type="matrix" values="0 0 0 0 0 0 0 0 0 0 0 0 0 0 0 0 0 0 127 0" result="hardAlpha"/>
<feOffset/>
<feGaussianBlur stdDeviation="1.5"/>
<feComposite in2="hardAlpha" operator="out"/>
<feColorMatrix type="matrix" values="0 0 0 0 1 0 0 0 0 0.8875 0 0 0 0 0.995575 0 0 0 0.52 0"/>
<feBlend mode="normal" in2="BackgroundImageFix" result="effect1_dropShadow_761_17396"/>
<feBlend mode="normal" in="SourceGraphic" in2="effect1_dropShadow_761_17396" result="shape"/>
</filter>
<filter id="filter3_d_761_17396" x="95.4492" y="0.905029" width="27.9619" height="27.9619" filterUnits="userSpaceOnUse" color-interpolation-filters="sRGB">
<feFlood flood-opacity="0" result="BackgroundImageFix"/>
<feColorMatrix in="SourceAlpha" type="matrix" values="0 0 0 0 0 0 0 0 0 0 0 0 0 0 0 0 0 0 127 0" result="hardAlpha"/>
<feOffset/>
<feGaussianBlur stdDeviation="1.5"/>
<feComposite in2="hardAlpha" operator="out"/>
<feColorMatrix type="matrix" values="0 0 0 0 1 0 0 0 0 0.8875 0 0 0 0 0.995575 0 0 0 0.52 0"/>
<feBlend mode="normal" in2="BackgroundImageFix" result="effect1_dropShadow_761_17396"/>
<feBlend mode="normal" in="SourceGraphic" in2="effect1_dropShadow_761_17396" result="shape"/>
</filter>
<filter id="filter4_d_761_17396" x="0.970703" y="38.9702" width="27.9619" height="27.9619" filterUnits="userSpaceOnUse" color-interpolation-filters="sRGB">
<feFlood flood-opacity="0" result="BackgroundImageFix"/>
<feColorMatrix in="SourceAlpha" type="matrix" values="0 0 0 0 0 0 0 0 0 0 0 0 0 0 0 0 0 0 127 0" result="hardAlpha"/>
<feOffset/>
<feGaussianBlur stdDeviation="1.5"/>
<feComposite in2="hardAlpha" operator="out"/>
<feColorMatrix type="matrix" values="0 0 0 0 1 0 0 0 0 0.8875 0 0 0 0 0.995575 0 0 0 0.52 0"/>
<feBlend mode="normal" in2="BackgroundImageFix" result="effect1_dropShadow_761_17396"/>
<feBlend mode="normal" in="SourceGraphic" in2="effect1_dropShadow_761_17396" result="shape"/>
</filter>
<filter id="filter5_d_761_17396" x="84.0381" y="101.72" width="49.9258" height="49.9258" filterUnits="userSpaceOnUse" color-interpolation-filters="sRGB">
<feFlood flood-opacity="0" result="BackgroundImageFix"/>
<feColorMatrix in="SourceAlpha" type="matrix" values="0 0 0 0 0 0 0 0 0 0 0 0 0 0 0 0 0 0 127 0" result="hardAlpha"/>
<feOffset/>
<feGaussianBlur stdDeviation="1.5"/>
<feComposite in2="hardAlpha" operator="out"/>
<feColorMatrix type="matrix" values="0 0 0 0 1 0 0 0 0 0.8875 0 0 0 0 0.995575 0 0 0 0.52 0"/>
<feBlend mode="normal" in2="BackgroundImageFix" result="effect1_dropShadow_761_17396"/>
<feBlend mode="normal" in="SourceGraphic" in2="effect1_dropShadow_761_17396" result="shape"/>
</filter>
<filter id="filter6_d_761_17396" x="84.0381" y="101.72" width="49.9258" height="49.9258" filterUnits="userSpaceOnUse" color-interpolation-filters="sRGB">
<feFlood flood-opacity="0" result="BackgroundImageFix"/>
<feColorMatrix in="SourceAlpha" type="matrix" values="0 0 0 0 0 0 0 0 0 0 0 0 0 0 0 0 0 0 127 0" result="hardAlpha"/>
<feOffset/>
<feGaussianBlur stdDeviation="2"/>
<feComposite in2="hardAlpha" operator="out"/>
<feColorMatrix type="matrix" values="0 0 0 0 1 0 0 0 0 1 0 0 0 0 1 0 0 0 0.17 0"/>
<feBlend mode="normal" in2="BackgroundImageFix" result="effect1_dropShadow_761_17396"/>
<feBlend mode="normal" in="SourceGraphic" in2="effect1_dropShadow_761_17396" result="shape"/>
</filter>
</defs>
</svg>
