<svg width="9" height="9" viewBox="0 0 9 9" fill="none" xmlns="http://www.w3.org/2000/svg">
<g clip-path="url(#clip0_1143_15953)">
<path d="M8.15354 0.000244141H5.73754V0.846587H7.55504L5.64188 2.75992C5.04896 2.29542 4.30272 2.01776 3.49119 2.01776C1.56305 2.01776 0 3.5808 0 5.50896C0 7.4371 1.56304 9.00015 3.49119 9.00015C5.41935 9.00015 6.98238 7.4371 6.98238 5.50896C6.98238 4.69742 6.70477 3.95124 6.24027 3.35837L8.15354 1.4451V3.2626H8.99989V0.000244141H8.15354ZM3.49119 8.15379C2.03281 8.15379 0.846352 6.96733 0.846352 5.50895C0.846352 4.05056 2.03281 2.86411 3.49119 2.86411C4.94958 2.86411 6.13603 4.05056 6.13603 5.50895C6.13602 6.96733 4.94957 8.15379 3.49119 8.15379Z" fill="white"/>
</g>
<defs>
<clipPath id="clip0_1143_15953">
<rect width="9" height="9" fill="white"/>
</clipPath>
</defs>
</svg>
