<svg width="210" height="183" viewBox="0 0 210 183" fill="none" xmlns="http://www.w3.org/2000/svg">
<g filter="url(#filter0_d_761_17589)">
<path fill-rule="evenodd" clip-rule="evenodd" d="M169.941 22.4165H40.0588C29.5979 22.4165 21.1176 32.2536 21.1176 44.3882V138.553C21.1176 150.688 29.5979 160.525 40.0588 160.525H169.941C180.402 160.525 188.882 150.688 188.882 138.553V44.3882C188.882 32.2536 180.402 22.4165 169.941 22.4165ZM40.0588 13C25.1146 13 13 27.053 13 44.3882V138.553C13 155.888 25.1147 169.941 40.0588 169.941H169.941C184.885 169.941 197 155.888 197 138.553V44.3882C197 27.053 184.885 13 169.941 13H40.0588Z" fill="white"/>
<path d="M40.0588 23.1665H169.941C179.887 23.1665 188.132 32.5594 188.132 44.3882V138.553C188.132 150.382 179.887 159.775 169.941 159.775H40.0588C30.1127 159.775 21.8676 150.382 21.8676 138.553V44.3882C21.8676 32.5594 30.1127 23.1665 40.0588 23.1665ZM40.0588 12.25C24.5998 12.25 12.25 26.7471 12.25 44.3882V138.553C12.25 156.194 24.5998 170.691 40.0588 170.691H169.941C185.4 170.691 197.75 156.194 197.75 138.553V44.3882C197.75 26.7471 185.4 12.25 169.941 12.25H40.0588Z" stroke="#E325DC" stroke-width="1.5"/>
</g>
<g filter="url(#filter1_d_761_17589)">
<path fill-rule="evenodd" clip-rule="evenodd" d="M169.941 22.4165H40.0588C29.5979 22.4165 21.1176 32.2536 21.1176 44.3882V138.553C21.1176 150.688 29.5979 160.525 40.0588 160.525H169.941C180.402 160.525 188.882 150.688 188.882 138.553V44.3882C188.882 32.2536 180.402 22.4165 169.941 22.4165ZM40.0588 13C25.1146 13 13 27.053 13 44.3882V138.553C13 155.888 25.1147 169.941 40.0588 169.941H169.941C184.885 169.941 197 155.888 197 138.553V44.3882C197 27.053 184.885 13 169.941 13H40.0588Z" fill="white"/>
<path d="M40.0588 23.4165H169.941C179.716 23.4165 187.882 32.6614 187.882 44.3882V138.553C187.882 150.28 179.716 159.525 169.941 159.525H40.0588C30.2843 159.525 22.1176 150.28 22.1176 138.553V44.3882C22.1176 32.6614 30.2843 23.4165 40.0588 23.4165ZM40.0588 12C24.4282 12 12 26.6451 12 44.3882V138.553C12 156.296 24.4282 170.941 40.0588 170.941H169.941C185.572 170.941 198 156.296 198 138.553V44.3882C198 26.6452 185.572 12 169.941 12H40.0588Z" stroke="#E325DC" stroke-width="2"/>
</g>
<g filter="url(#filter2_d_761_17589)">
<path d="M61.136 51.3876C59.9607 50.6424 58.5835 50.4661 57.2988 50.8964C56.0142 51.3266 54.9239 52.3293 54.261 53.69C53.5982 55.0508 53.4154 56.6618 53.7516 58.1786C54.0879 59.6954 54.9165 60.9978 56.0605 61.8074L103.814 93.819C104.587 94.3369 105.462 94.6093 106.352 94.6093C107.242 94.6093 108.116 94.3369 108.889 93.819L156.643 61.8074C157.787 60.9978 158.615 59.6954 158.952 58.1786C159.288 56.6618 159.105 55.0508 158.442 53.69C157.779 52.3293 156.689 51.3266 155.404 50.8964C154.12 50.4661 152.743 50.6424 151.567 51.3876L106.352 81.6946L61.136 51.3956V51.3876Z" fill="white"/>
<path d="M61.886 50.9954V50.9751L61.5376 50.7542C60.1776 49.8919 58.5661 49.681 57.0606 50.1852C55.5619 50.6871 54.3264 51.8432 53.5868 53.3616C52.8476 54.879 52.6475 56.6634 53.0194 58.3409C53.3912 60.0183 54.3143 61.4904 55.6272 62.4196L55.635 62.4251L55.6429 62.4303L103.396 94.4419L103.396 94.442C104.287 95.0387 105.306 95.3593 106.352 95.3593C107.397 95.3593 108.416 95.0387 109.307 94.442L109.307 94.4419L157.06 62.4303L157.068 62.4251L157.076 62.4196C158.389 61.4904 159.312 60.0183 159.684 58.3409C160.056 56.6634 159.856 54.879 159.116 53.3616C158.377 51.8432 157.141 50.6871 155.643 50.1852C154.137 49.681 152.526 49.8919 151.166 50.7542L151.158 50.7593L151.15 50.7646L106.352 80.7917L61.886 50.9954Z" stroke="#E325DC" stroke-width="1.5"/>
</g>
<g filter="url(#filter3_d_761_17589)">
<path d="M61.136 51.3876C59.9607 50.6424 58.5835 50.4661 57.2988 50.8964C56.0142 51.3266 54.9239 52.3293 54.261 53.69C53.5982 55.0508 53.4154 56.6618 53.7516 58.1786C54.0879 59.6954 54.9165 60.9978 56.0605 61.8074L103.814 93.819C104.587 94.3369 105.462 94.6093 106.352 94.6093C107.242 94.6093 108.116 94.3369 108.889 93.819L156.643 61.8074C157.787 60.9978 158.615 59.6954 158.952 58.1786C159.288 56.6618 159.105 55.0508 158.442 53.69C157.779 52.3293 156.689 51.3266 155.404 50.8964C154.12 50.4661 152.743 50.6424 151.567 51.3876L106.352 81.6946L61.136 51.3956V51.3876Z" fill="white"/>
<path d="M62.136 50.8619V50.8376L61.6714 50.543C60.2499 49.6418 58.5603 49.4193 56.9813 49.9481C55.4112 50.474 54.1273 51.6811 53.362 53.2521C52.5975 54.8218 52.3916 56.6639 52.7753 58.395C53.159 60.1259 54.1135 61.6546 55.4828 62.6236L55.4932 62.631L55.5037 62.638L103.257 94.6496L103.257 94.6497C104.187 95.2727 105.254 95.6093 106.352 95.6093C107.449 95.6093 108.516 95.2727 109.446 94.6497L109.446 94.6496L157.2 62.638L157.21 62.631L157.22 62.6236C158.59 61.6546 159.544 60.1259 159.928 58.395L158.952 58.1786L159.928 58.395C160.312 56.6639 160.106 54.8218 159.341 53.2521C158.576 51.6811 157.292 50.474 155.722 49.9481C154.143 49.4193 152.453 49.6418 151.032 50.543L151.021 50.5498L151.01 50.5569L106.352 80.4908L62.136 50.8619Z" stroke="#E325DC" stroke-width="2"/>
</g>
<defs>
<filter id="filter0_d_761_17589" x="0.5" y="0.5" width="209" height="181.941" filterUnits="userSpaceOnUse" color-interpolation-filters="sRGB">
<feFlood flood-opacity="0" result="BackgroundImageFix"/>
<feColorMatrix in="SourceAlpha" type="matrix" values="0 0 0 0 0 0 0 0 0 0 0 0 0 0 0 0 0 0 127 0" result="hardAlpha"/>
<feOffset/>
<feGaussianBlur stdDeviation="5.5"/>
<feComposite in2="hardAlpha" operator="out"/>
<feColorMatrix type="matrix" values="0 0 0 0 1 0 0 0 0 0.3125 0 0 0 0 0.972958 0 0 0 0.42 0"/>
<feBlend mode="normal" in2="BackgroundImageFix" result="effect1_dropShadow_761_17589"/>
<feBlend mode="normal" in="SourceGraphic" in2="effect1_dropShadow_761_17589" result="shape"/>
</filter>
<filter id="filter1_d_761_17589" x="5" y="5" width="200" height="172.941" filterUnits="userSpaceOnUse" color-interpolation-filters="sRGB">
<feFlood flood-opacity="0" result="BackgroundImageFix"/>
<feColorMatrix in="SourceAlpha" type="matrix" values="0 0 0 0 0 0 0 0 0 0 0 0 0 0 0 0 0 0 127 0" result="hardAlpha"/>
<feOffset/>
<feGaussianBlur stdDeviation="3"/>
<feComposite in2="hardAlpha" operator="out"/>
<feColorMatrix type="matrix" values="0 0 0 0 1 0 0 0 0 1 0 0 0 0 1 0 0 0 0.14 0"/>
<feBlend mode="normal" in2="BackgroundImageFix" result="effect1_dropShadow_761_17589"/>
<feBlend mode="normal" in="SourceGraphic" in2="effect1_dropShadow_761_17589" result="shape"/>
</filter>
<filter id="filter2_d_761_17589" x="43.0869" y="40.1658" width="126.529" height="64.9436" filterUnits="userSpaceOnUse" color-interpolation-filters="sRGB">
<feFlood flood-opacity="0" result="BackgroundImageFix"/>
<feColorMatrix in="SourceAlpha" type="matrix" values="0 0 0 0 0 0 0 0 0 0 0 0 0 0 0 0 0 0 127 0" result="hardAlpha"/>
<feOffset/>
<feGaussianBlur stdDeviation="4.5"/>
<feComposite in2="hardAlpha" operator="out"/>
<feColorMatrix type="matrix" values="0 0 0 0 1 0 0 0 0 0.3125 0 0 0 0 0.972958 0 0 0 0.42 0"/>
<feBlend mode="normal" in2="BackgroundImageFix" result="effect1_dropShadow_761_17589"/>
<feBlend mode="normal" in="SourceGraphic" in2="effect1_dropShadow_761_17589" result="shape"/>
</filter>
<filter id="filter3_d_761_17589" x="45.5869" y="42.6658" width="121.529" height="59.9436" filterUnits="userSpaceOnUse" color-interpolation-filters="sRGB">
<feFlood flood-opacity="0" result="BackgroundImageFix"/>
<feColorMatrix in="SourceAlpha" type="matrix" values="0 0 0 0 0 0 0 0 0 0 0 0 0 0 0 0 0 0 127 0" result="hardAlpha"/>
<feOffset/>
<feGaussianBlur stdDeviation="3"/>
<feComposite in2="hardAlpha" operator="out"/>
<feColorMatrix type="matrix" values="0 0 0 0 1 0 0 0 0 1 0 0 0 0 1 0 0 0 0.14 0"/>
<feBlend mode="normal" in2="BackgroundImageFix" result="effect1_dropShadow_761_17589"/>
<feBlend mode="normal" in="SourceGraphic" in2="effect1_dropShadow_761_17589" result="shape"/>
</filter>
</defs>
</svg>
