<svg width="210" height="210" viewBox="0 0 210 210" fill="none" xmlns="http://www.w3.org/2000/svg">
<g filter="url(#filter0_d_317_16594)">
<path fill-rule="evenodd" clip-rule="evenodd" d="M124.525 148.544C124.525 165.268 138.141 178.893 154.874 178.893C171.597 178.893 185.224 165.268 185.224 148.533V98.4019H124.525V148.544ZM118.303 148.544C118.303 168.704 134.704 185.115 154.874 185.115C175.034 185.115 191.446 168.704 191.446 148.533V97.4297C191.446 94.5317 189.094 92.1797 186.196 92.1797H123.553C120.655 92.1797 118.303 94.5317 118.303 97.4297V148.544Z" fill="white"/>
<path d="M154.874 177.893C138.694 177.893 125.525 164.716 125.525 148.544V99.4019H184.224V148.533C184.224 164.716 171.044 177.893 154.874 177.893ZM117.303 148.544C117.303 169.256 134.151 186.115 154.874 186.115C175.587 186.115 192.446 169.256 192.446 148.533V97.4297C192.446 93.9794 189.646 91.1797 186.196 91.1797H123.553C120.102 91.1797 117.303 93.9794 117.303 97.4297V148.544Z" stroke="#E325DC" stroke-width="2"/>
</g>
<path d="M151.393 28H60.1746C39.8325 28 23.334 44.528 23.334 64.9304V149.985C23.334 167.672 37.6377 182 55.2711 182C72.9152 182 87.2082 167.661 87.2082 149.985V144.64H151.382C171.724 144.64 188.223 128.112 188.223 107.71V64.9196C188.223 44.528 171.735 28 151.393 28Z" fill="url(#paint0_linear_317_16594)"/>
<g filter="url(#filter1_d_317_16594)">
<path fill-rule="evenodd" clip-rule="evenodd" d="M86.3596 142.342H150.266C169.646 142.342 185.424 126.564 185.424 107.184V65.3204C185.424 45.9404 169.646 30.1622 150.266 30.1622H60.8161C41.436 30.1622 25.6578 45.9404 25.6578 65.3204V148.543C25.6578 165.268 39.2741 178.893 56.007 178.893C72.7311 178.893 86.3476 165.276 86.3563 148.561L86.3596 142.342ZM92.5785 148.564H150.266C173.082 148.564 191.646 130 191.646 107.184V65.3204C191.646 42.5039 173.082 23.9399 150.266 23.9399H60.8161C37.9995 23.9399 19.4355 42.5039 19.4355 65.3204V148.543C19.4355 168.703 35.8365 185.115 56.007 185.115C76.167 185.115 92.568 168.714 92.5785 148.564Z" fill="white"/>
<path d="M86.3596 141.342H85.3601L85.3596 142.342L85.3563 148.561C85.3479 164.724 72.1789 177.893 56.007 177.893C39.8266 177.893 26.6578 164.716 26.6578 148.543V65.3204C26.6578 46.4927 41.9883 31.1622 60.8161 31.1622H150.266C169.093 31.1622 184.424 46.4927 184.424 65.3204V107.184C184.424 126.012 169.093 141.342 150.266 141.342H86.3596ZM93.5649 149.564H150.266C173.634 149.564 192.646 130.553 192.646 107.184V65.3204C192.646 41.9517 173.634 22.9399 150.266 22.9399H60.8161C37.4473 22.9399 18.4355 41.9517 18.4355 65.3204V148.543C18.4355 169.256 35.2841 186.115 56.007 186.115C76.3849 186.115 93.0228 169.806 93.5649 149.564Z" stroke="#E325DC" stroke-width="2"/>
</g>
<g filter="url(#filter2_d_317_16594)">
<path fill-rule="evenodd" clip-rule="evenodd" d="M62.3082 72.8618L59.1843 73.8614C55.3768 75.0798 52.6047 78.4299 52.249 82.25C51.9986 85.0048 52.9194 87.7419 54.7605 89.755L54.7679 89.7631C55.9473 91.0572 57.4715 92.0116 59.1307 92.5197L62.2913 93.4874L63.2587 96.6481C64.4883 100.665 68.2331 103.577 72.618 103.577C77.0028 103.577 80.7476 100.665 81.9772 96.6481L82.9459 93.4833L86.1116 92.5177C87.7702 92.0118 89.2842 91.0621 90.468 89.7631L90.4682 89.7629C92.3123 87.7395 93.2365 84.9954 92.9869 82.2497C92.631 78.4297 89.859 75.0798 86.0516 73.8614L82.9333 72.8636L81.9897 69.7284C80.7727 65.6847 77.0145 62.7544 72.618 62.7544C68.2149 62.7544 64.4552 65.6899 63.2488 69.7197L62.3082 72.8618ZM99.183 81.6797C99.5925 86.1632 98.091 90.6362 95.067 93.9542C93.1245 96.0857 90.6465 97.6397 87.927 98.4692C85.9215 105.021 79.821 109.799 72.618 109.799C65.415 109.799 59.3145 105.021 57.309 98.4692C54.6 97.6397 52.1115 96.0857 50.169 93.9542C47.1345 90.6362 45.6435 86.1632 46.053 81.6797C46.6515 75.2222 51.2505 69.8672 57.288 67.9352C59.262 61.3412 65.394 56.5322 72.618 56.5322C79.842 56.5322 85.9635 61.3412 87.948 67.9352C93.9855 69.8672 98.5845 75.2222 99.183 81.6797Z" fill="white"/>
<path d="M62.613 73.8142L63.115 73.6536L63.2662 73.1486L64.2068 70.0065C65.2894 66.3901 68.6669 63.7544 72.618 63.7544C76.5616 63.7544 79.9389 66.3842 81.0321 70.0166L81.9757 73.1518L82.1273 73.6556L82.6285 73.816L85.7468 74.8138C89.1938 75.9169 91.6744 78.9434 91.9912 82.3421C92.2149 84.8083 91.3834 87.2742 89.7291 89.0893L89.7289 89.0895C89.7286 89.0898 89.7284 89.09 89.7282 89.0903C88.6664 90.2551 87.3076 91.1074 85.8199 91.5612L82.6542 92.5268L82.1454 92.682L81.9897 93.1906L81.021 96.3554C79.9165 99.9638 76.5514 102.577 72.618 102.577C68.6845 102.577 65.3194 99.9638 64.2149 96.3554L63.2475 93.1947L63.092 92.6868L62.584 92.5313L59.4235 91.5635L59.1307 92.5197L59.4235 91.5635C57.9331 91.1071 56.5638 90.2491 55.507 89.0895L55.5059 89.0883L55.4985 89.0802L55.4984 89.0801C53.8491 87.2766 53.0199 84.8184 53.2448 82.3415C53.5618 78.9431 56.0423 75.9168 59.4891 74.8138L62.613 73.8142ZM100.179 81.5888L100.179 81.5874C99.5575 74.8848 94.8994 69.3247 88.7473 67.1493C86.487 60.4024 80.1133 55.5322 72.618 55.5322C65.124 55.5322 58.7392 60.4011 56.4878 67.1496C50.3362 69.3252 45.6784 74.8851 45.0572 81.5874L45.0571 81.5888C44.6223 86.3496 46.2047 91.101 49.4304 94.6285C51.375 96.762 53.8322 98.3496 56.5148 99.2633C58.7969 105.964 65.1471 110.799 72.618 110.799C80.0886 110.799 86.4386 105.964 88.7209 99.2639C91.4134 98.3498 93.8618 96.7612 95.806 94.6278C99.0195 91.1019 100.614 86.3513 100.179 81.5888Z" stroke="#E325DC" stroke-width="2"/>
</g>
<g filter="url(#filter3_d_317_16594)">
<path fill-rule="evenodd" clip-rule="evenodd" d="M124.273 82.9604C124.273 92.376 131.945 100.048 141.361 100.048C150.776 100.048 158.449 92.376 158.449 82.9604C158.449 73.5448 150.776 65.8726 141.361 65.8726C131.945 65.8726 124.273 73.5448 124.273 82.9604ZM118.051 82.9604C118.051 95.8124 128.509 106.27 141.361 106.27C154.213 106.27 164.671 95.8124 164.671 82.9604C164.671 70.1084 154.213 59.6504 141.361 59.6504C128.509 59.6504 118.051 70.1084 118.051 82.9604Z" fill="white"/>
<path d="M141.361 99.0482C132.498 99.0482 125.273 91.8237 125.273 82.9604C125.273 74.0971 132.498 66.8726 141.361 66.8726C150.224 66.8726 157.449 74.0971 157.449 82.9604C157.449 91.8237 150.224 99.0482 141.361 99.0482ZM117.051 82.9604C117.051 96.3647 127.956 107.27 141.361 107.27C154.765 107.27 165.671 96.3647 165.671 82.9604C165.671 69.5561 154.765 58.6504 141.361 58.6504C127.956 58.6504 117.051 69.5561 117.051 82.9604Z" stroke="#E325DC" stroke-width="2"/>
</g>
<defs>
<filter id="filter0_d_317_16594" x="109.303" y="83.1797" width="91.1426" height="110.936" filterUnits="userSpaceOnUse" color-interpolation-filters="sRGB">
<feFlood flood-opacity="0" result="BackgroundImageFix"/>
<feColorMatrix in="SourceAlpha" type="matrix" values="0 0 0 0 0 0 0 0 0 0 0 0 0 0 0 0 0 0 127 0" result="hardAlpha"/>
<feOffset/>
<feGaussianBlur stdDeviation="3.5"/>
<feComposite in2="hardAlpha" operator="out"/>
<feColorMatrix type="matrix" values="0 0 0 0 1 0 0 0 0 0.8875 0 0 0 0 0.995575 0 0 0 0.52 0"/>
<feBlend mode="normal" in2="BackgroundImageFix" result="effect1_dropShadow_317_16594"/>
<feBlend mode="normal" in="SourceGraphic" in2="effect1_dropShadow_317_16594" result="shape"/>
</filter>
<filter id="filter1_d_317_16594" x="10.4355" y="14.9399" width="190.211" height="179.175" filterUnits="userSpaceOnUse" color-interpolation-filters="sRGB">
<feFlood flood-opacity="0" result="BackgroundImageFix"/>
<feColorMatrix in="SourceAlpha" type="matrix" values="0 0 0 0 0 0 0 0 0 0 0 0 0 0 0 0 0 0 127 0" result="hardAlpha"/>
<feOffset/>
<feGaussianBlur stdDeviation="3.5"/>
<feComposite in2="hardAlpha" operator="out"/>
<feColorMatrix type="matrix" values="0 0 0 0 1 0 0 0 0 0.8875 0 0 0 0 0.995575 0 0 0 0.52 0"/>
<feBlend mode="normal" in2="BackgroundImageFix" result="effect1_dropShadow_317_16594"/>
<feBlend mode="normal" in="SourceGraphic" in2="effect1_dropShadow_317_16594" result="shape"/>
</filter>
<filter id="filter2_d_317_16594" x="36.9863" y="47.5322" width="71.2637" height="71.2666" filterUnits="userSpaceOnUse" color-interpolation-filters="sRGB">
<feFlood flood-opacity="0" result="BackgroundImageFix"/>
<feColorMatrix in="SourceAlpha" type="matrix" values="0 0 0 0 0 0 0 0 0 0 0 0 0 0 0 0 0 0 127 0" result="hardAlpha"/>
<feOffset/>
<feGaussianBlur stdDeviation="3.5"/>
<feComposite in2="hardAlpha" operator="out"/>
<feColorMatrix type="matrix" values="0 0 0 0 1 0 0 0 0 0.8875 0 0 0 0 0.995575 0 0 0 0.52 0"/>
<feBlend mode="normal" in2="BackgroundImageFix" result="effect1_dropShadow_317_16594"/>
<feBlend mode="normal" in="SourceGraphic" in2="effect1_dropShadow_317_16594" result="shape"/>
</filter>
<filter id="filter3_d_317_16594" x="109.051" y="50.6504" width="64.6191" height="64.6201" filterUnits="userSpaceOnUse" color-interpolation-filters="sRGB">
<feFlood flood-opacity="0" result="BackgroundImageFix"/>
<feColorMatrix in="SourceAlpha" type="matrix" values="0 0 0 0 0 0 0 0 0 0 0 0 0 0 0 0 0 0 127 0" result="hardAlpha"/>
<feOffset/>
<feGaussianBlur stdDeviation="3.5"/>
<feComposite in2="hardAlpha" operator="out"/>
<feColorMatrix type="matrix" values="0 0 0 0 1 0 0 0 0 0.8875 0 0 0 0 0.995575 0 0 0 0.52 0"/>
<feBlend mode="normal" in2="BackgroundImageFix" result="effect1_dropShadow_317_16594"/>
<feBlend mode="normal" in="SourceGraphic" in2="effect1_dropShadow_317_16594" result="shape"/>
</filter>
<linearGradient id="paint0_linear_317_16594" x1="105.778" y1="28" x2="105.778" y2="182" gradientUnits="userSpaceOnUse">
<stop stop-color="#1C3450"/>
<stop offset="1" stop-color="#1C3450"/>
</linearGradient>
</defs>
</svg>
