<svg width="221" height="221" viewBox="0 0 221 221" fill="none" xmlns="http://www.w3.org/2000/svg">
<g filter="url(#filter0_d_1143_15923)">
<path fill-rule="evenodd" clip-rule="evenodd" d="M74.6182 59.8542C74.6182 40.0371 90.6831 23.9722 110.5 23.9722C130.317 23.9722 146.382 40.0371 146.382 59.8542C146.382 79.6714 130.317 95.7363 110.5 95.7363C90.6831 95.7363 74.6182 79.6714 74.6182 59.8542ZM110.5 31.278C94.718 31.278 81.9239 44.072 81.9239 59.8542C81.9239 75.6365 94.718 88.4305 110.5 88.4305C126.283 88.4305 139.076 75.6365 139.076 59.8542C139.076 44.072 126.282 31.278 110.5 31.278Z" fill="white"/>
<path d="M110.5 22.9722C90.1308 22.9722 73.6182 39.4848 73.6182 59.8542C73.6182 80.2237 90.1308 96.7363 110.5 96.7363C130.87 96.7363 147.382 80.2237 147.382 59.8542C147.382 39.4848 130.87 22.9722 110.5 22.9722ZM82.9239 59.8542C82.9239 44.6243 95.2702 32.278 110.5 32.278C125.73 32.278 138.076 44.6243 138.076 59.8542C138.076 75.0842 125.73 87.4305 110.5 87.4305C95.2702 87.4305 82.9239 75.0842 82.9239 59.8542Z" stroke="#E325DC" stroke-width="2" stroke-linecap="round" stroke-linejoin="round"/>
</g>
<g filter="url(#filter1_d_1143_15923)">
<path fill-rule="evenodd" clip-rule="evenodd" d="M86.3907 125.264H134.608C144.781 125.264 152.64 125.264 158.931 125.778C165.299 126.298 170.381 127.363 174.921 129.676C182.539 133.558 188.733 139.752 192.615 147.37C194.928 151.91 195.993 156.993 196.514 163.36C197.027 169.651 197.027 177.51 197.027 187.683V193.375C197.027 195.392 195.392 197.028 193.375 197.028H27.6246C25.6071 197.028 23.9717 195.392 23.9717 193.375V187.683C23.9717 177.51 23.9717 169.651 24.4856 163.36C25.0059 156.993 26.071 151.91 28.3844 147.37C32.2659 139.752 38.4595 133.558 46.0777 129.676C50.618 127.363 55.7006 126.298 62.0685 125.778C68.3593 125.264 76.2179 125.264 86.3907 125.264ZM62.6634 133.059C56.7473 133.542 52.7331 134.485 49.3943 136.186C43.151 139.367 38.075 144.443 34.8939 150.686C33.1927 154.025 32.2505 158.039 31.7672 163.955C31.2803 169.914 31.2775 177.475 31.2775 187.85V189.722H189.722V187.85C189.722 177.475 189.719 169.914 189.232 163.955C188.749 158.039 187.807 154.025 186.105 150.686C186.105 150.686 186.105 150.686 186.105 150.686C182.924 144.443 177.848 139.367 171.605 136.186C168.266 134.485 164.252 133.542 158.336 133.059C152.377 132.572 144.816 132.569 134.441 132.569H86.5579C76.1834 132.569 68.6222 132.572 62.6634 133.059Z" fill="white"/>
<path d="M193.506 146.916L192.615 147.37L193.506 146.916C189.528 139.109 183.182 132.763 175.375 128.785L174.921 129.676L175.375 128.785C170.671 126.388 165.442 125.306 159.012 124.781C152.681 124.264 144.789 124.264 134.653 124.264H134.608H86.3907H86.3457C76.2105 124.264 68.3186 124.264 61.9871 124.781C55.5572 125.306 50.3284 126.388 45.6237 128.785L45.6237 128.785C37.8174 132.763 31.4708 139.11 27.4934 146.916C25.0962 151.62 24.0143 156.849 23.489 163.279C22.9716 169.611 22.9717 177.502 22.9717 187.638V187.683V193.375C22.9717 195.945 25.0549 198.028 27.6246 198.028H193.375C195.944 198.028 198.027 195.945 198.027 193.375V187.683V187.638C198.027 177.502 198.027 169.611 197.51 163.279C196.985 156.849 195.903 151.62 193.506 146.916ZM185.214 151.14C186.832 154.315 187.757 158.182 188.235 164.037C188.718 169.945 188.722 177.459 188.722 187.85V188.722H32.2775V187.85C32.2775 177.459 32.2811 169.945 32.7638 164.037C33.2422 158.182 34.1676 154.315 35.7849 151.14L34.8939 150.686L35.7849 151.14C38.8702 145.085 43.7932 140.162 49.8483 137.077C53.0226 135.459 56.8904 134.534 62.7448 134.056C68.6534 133.573 76.1667 133.569 86.5579 133.569H134.441C144.832 133.569 152.346 133.573 158.254 134.056C164.109 134.534 167.977 135.459 171.151 137.077C177.206 140.162 182.129 145.085 185.214 151.14Z" stroke="#E325DC" stroke-width="2" stroke-linecap="round" stroke-linejoin="round"/>
</g>
<defs>
<filter id="filter0_d_1143_15923" x="65.6182" y="14.9722" width="89.7637" height="89.7642" filterUnits="userSpaceOnUse" color-interpolation-filters="sRGB">
<feFlood flood-opacity="0" result="BackgroundImageFix"/>
<feColorMatrix in="SourceAlpha" type="matrix" values="0 0 0 0 0 0 0 0 0 0 0 0 0 0 0 0 0 0 127 0" result="hardAlpha"/>
<feOffset/>
<feGaussianBlur stdDeviation="3.5"/>
<feComposite in2="hardAlpha" operator="out"/>
<feColorMatrix type="matrix" values="0 0 0 0 1 0 0 0 0 0.8875 0 0 0 0 0.995575 0 0 0 0.52 0"/>
<feBlend mode="normal" in2="BackgroundImageFix" result="effect1_dropShadow_1143_15923"/>
<feBlend mode="normal" in="SourceGraphic" in2="effect1_dropShadow_1143_15923" result="shape"/>
</filter>
<filter id="filter1_d_1143_15923" x="14.9717" y="116.264" width="191.056" height="89.7642" filterUnits="userSpaceOnUse" color-interpolation-filters="sRGB">
<feFlood flood-opacity="0" result="BackgroundImageFix"/>
<feColorMatrix in="SourceAlpha" type="matrix" values="0 0 0 0 0 0 0 0 0 0 0 0 0 0 0 0 0 0 127 0" result="hardAlpha"/>
<feOffset/>
<feGaussianBlur stdDeviation="3.5"/>
<feComposite in2="hardAlpha" operator="out"/>
<feColorMatrix type="matrix" values="0 0 0 0 1 0 0 0 0 0.8875 0 0 0 0 0.995575 0 0 0 0.52 0"/>
<feBlend mode="normal" in2="BackgroundImageFix" result="effect1_dropShadow_1143_15923"/>
<feBlend mode="normal" in="SourceGraphic" in2="effect1_dropShadow_1143_15923" result="shape"/>
</filter>
</defs>
</svg>
