<svg width="18" height="18" viewBox="0 0 18 18" fill="none" xmlns="http://www.w3.org/2000/svg">
<path d="M12.3011 13.6498C11.3261 14.2498 10.2011 14.6248 9.07615 14.6248C5.77614 14.6248 3.15114 12.0748 3.15114 8.84981C3.15114 8.0248 3.30114 7.27481 3.67615 6.52481L3.75114 7.04981C3.82614 7.3498 4.20114 7.49981 4.50114 7.42481C4.80115 7.3498 4.95114 6.97481 4.87614 6.6748L4.20114 4.6498C4.12615 4.34981 3.75114 4.1998 3.45115 4.2748L1.35114 5.02481C1.05114 5.0998 0.901141 5.47481 0.976147 5.7748C1.05114 6.07481 1.42615 6.2248 1.72614 6.14981L2.55115 5.92481C2.10115 6.8998 1.80114 7.87481 1.80114 8.99981C1.80114 12.8998 5.02615 16.0498 9.00114 16.0498C10.4261 16.0498 11.7761 15.6748 12.9761 14.9248C13.2761 14.6998 13.3511 14.3248 13.2011 14.0248C12.9761 13.5748 12.6011 13.4248 12.3011 13.6498ZM16.8011 12.2248C16.6511 11.9248 16.3511 11.7748 16.0511 11.9248L15.3761 12.2248C15.9761 11.1748 16.2761 10.0498 16.2761 8.84981C16.2761 4.94981 13.0511 1.7998 9.07615 1.7998C7.57614 1.7998 6.22614 2.2498 5.02615 2.99981C4.72614 3.22481 4.65113 3.5998 4.80115 3.89981C5.02615 4.1998 5.40114 4.2748 5.70115 4.0498C6.67614 3.44981 7.80114 3.0748 9.00114 3.0748C12.3011 3.0748 14.9261 5.62481 14.9261 8.84981C14.9261 9.8248 14.7011 10.7248 14.2511 11.5498C14.2511 11.5498 14.2511 11.6248 14.1761 11.6248L13.9511 11.0248C13.8011 10.7248 13.5011 10.5748 13.2011 10.7248C12.9011 10.8748 12.7511 11.1748 12.9011 11.4748L13.7261 13.4998C13.8761 13.7998 14.1761 13.9498 14.4761 13.7998L16.5011 12.9748C16.8011 12.8248 16.9511 12.5248 16.8011 12.2248Z" fill="url(#paint0_linear_761_17393)"/>
<defs>
<linearGradient id="paint0_linear_761_17393" x1="8.90851" y1="1.7998" x2="8.90851" y2="16.0498" gradientUnits="userSpaceOnUse">
<stop stop-color="#E325DC"/>
<stop offset="1" stop-color="white"/>
</linearGradient>
</defs>
</svg>
