<svg width="246" height="172" viewBox="0 0 246 172" fill="none" xmlns="http://www.w3.org/2000/svg">
<g filter="url(#filter0_d_761_18372)">
<path fill-rule="evenodd" clip-rule="evenodd" d="M100.141 47.7182C100.141 50.1474 101.05 52.9529 103.523 56.0209C106.038 59.1416 110.022 62.3207 115.569 65.1715C121.088 68.0079 127.818 70.3439 135.414 71.9607C142.997 73.575 151.184 74.4168 159.489 74.4168C167.794 74.4168 175.981 73.575 183.565 71.9607C191.16 70.3439 197.89 68.0079 203.409 65.1715C208.957 62.3207 212.94 59.1416 215.456 56.0209C217.929 52.9529 218.837 50.1474 218.837 47.7182C218.837 42.9117 214.962 36.2019 203.409 30.2648C192.167 24.4875 176.373 21.0196 159.489 21.0196C142.605 21.0196 126.811 24.4875 115.569 30.2648C104.016 36.2019 100.141 42.9117 100.141 47.7182ZM97.4357 60.9272C94.0603 56.7394 92.323 52.251 92.323 47.7182C92.323 38.5638 99.3994 29.7843 111.996 23.3111C124.592 16.838 141.676 13.2014 159.489 13.2014C177.303 13.2014 194.387 16.838 206.983 23.3111C219.579 29.7843 226.655 38.5638 226.655 47.7182C226.655 52.251 224.918 56.7394 221.543 60.9272C218.167 65.115 213.22 68.9201 206.983 72.1252C200.746 75.3304 193.342 77.8729 185.193 79.6075C177.044 81.3422 168.31 82.235 159.489 82.235C150.669 82.235 141.935 81.3422 133.786 79.6075C125.637 77.8729 118.232 75.3304 111.996 72.1252C105.759 68.9201 100.811 65.115 97.4357 60.9272Z" fill="white"/>
<path d="M104.301 55.3934C101.945 52.4694 101.141 49.8792 101.141 47.7182C101.141 43.4625 104.614 37.019 116.026 31.1543C127.095 25.4659 142.724 22.0196 159.489 22.0196C176.254 22.0196 191.883 25.4659 202.952 31.1543C214.364 37.019 217.837 43.4625 217.837 47.7182C217.837 49.8792 217.034 52.4694 214.677 55.3934C212.272 58.3776 208.411 61.4767 202.952 64.2821C197.525 67.0713 190.881 69.3809 183.357 70.9826C175.845 72.5815 167.729 73.4168 159.489 73.4168C151.25 73.4168 143.133 72.5815 135.622 70.9826C128.097 69.3809 121.454 67.0713 116.026 64.2821C110.567 61.4767 106.707 58.3776 104.301 55.3934ZM91.323 47.7182C91.323 52.5201 93.1663 57.2237 96.6571 61.5547C100.143 65.879 105.213 69.7642 111.538 73.0147C117.867 76.267 125.358 78.8359 133.578 80.5856C141.799 82.3356 150.603 83.235 159.489 83.235C168.376 83.235 177.18 82.3356 185.401 80.5856C193.621 78.8359 201.111 76.267 207.44 73.0147C213.765 69.7642 218.836 65.879 222.321 61.5547C225.812 57.2238 227.655 52.5201 227.655 47.7182C227.655 38.0076 220.17 28.9634 207.44 22.4217C194.671 15.8596 177.422 12.2014 159.489 12.2014C141.557 12.2014 124.308 15.8596 111.538 22.4217C98.8089 28.9634 91.323 38.0076 91.323 47.7182Z" stroke="#E325DC" stroke-width="2"/>
</g>
<g filter="url(#filter1_d_761_18372)">
<path fill-rule="evenodd" clip-rule="evenodd" d="M98.0345 72.0513C96.1557 74.2342 94.704 76.5359 93.7344 78.9285C92.8093 81.2111 92.323 83.5763 92.323 86C92.323 105.063 122.394 120.517 159.489 120.517C196.584 120.517 226.655 105.063 226.655 86C226.655 83.5763 226.169 81.211 225.244 78.9285C224.274 76.5359 222.823 74.2342 220.944 72.0513C219.335 73.9203 217.413 75.7022 215.212 77.3794C203.146 86.5731 182.692 92.6194 159.489 92.6194C136.287 92.6194 115.833 86.5731 103.766 77.3794C101.565 75.7022 99.6432 73.9203 98.0345 72.0513ZM100.252 84.5038C100.177 85.0117 100.141 85.5105 100.141 86C100.141 91.0873 104.323 97.6738 115.569 103.453C126.407 109.023 141.923 112.699 159.489 112.699C177.056 112.699 192.572 109.023 203.409 103.453C214.656 97.6738 218.837 91.0873 218.837 86C218.837 85.5105 218.802 85.0117 218.727 84.5038C213.16 88.5048 206.45 91.776 199.119 94.2776C187.596 98.2099 173.977 100.438 159.489 100.438C145.001 100.438 131.383 98.2099 119.859 94.2776C112.528 91.776 105.818 88.5048 100.252 84.5038Z" fill="white"/>
<path d="M98.7924 71.3989L98.0345 70.5183L97.2766 71.3989C95.3377 73.6517 93.8239 76.0451 92.8076 78.5529C91.8373 80.9472 91.323 83.4396 91.323 86C91.323 96.0999 99.2676 104.99 111.538 111.296C123.862 117.629 140.816 121.517 159.489 121.517C178.162 121.517 195.117 117.629 207.44 111.296C219.711 104.99 227.655 96.0999 227.655 86C227.655 83.4396 227.141 80.9472 226.171 78.5529C225.155 76.0451 223.641 73.6516 221.702 71.3989L220.944 70.5184L220.186 71.3989C218.629 73.2082 216.759 74.9431 214.606 76.5839C202.769 85.6033 182.553 91.6194 159.489 91.6194C136.425 91.6194 116.21 85.6033 104.372 76.5839C102.219 74.9431 100.35 73.2082 98.7924 71.3989ZM199.442 95.224C206.211 92.9144 212.477 89.9478 217.83 86.3453C217.643 90.8424 213.795 96.9919 202.952 102.564C192.283 108.047 176.93 111.699 159.489 111.699C142.048 111.699 126.695 108.047 116.026 102.564C105.184 96.992 101.335 90.8424 101.148 86.3453C106.501 89.9478 112.768 92.9144 119.536 95.224C131.174 99.1953 144.903 101.438 159.489 101.438C174.076 101.438 187.805 99.1953 199.442 95.224Z" stroke="#E325DC" stroke-width="2"/>
</g>
<g filter="url(#filter2_d_761_18372)">
<path fill-rule="evenodd" clip-rule="evenodd" d="M97.6325 110.809C95.7758 113.058 94.3696 115.428 93.4724 117.891C92.7177 119.962 92.323 122.098 92.323 124.282C92.323 143.345 122.394 158.799 159.489 158.799C196.584 158.799 226.655 143.345 226.655 124.282C226.655 122.098 226.261 119.962 225.506 117.891C224.609 115.428 223.203 113.058 221.346 110.809C219.772 112.715 217.874 114.534 215.687 116.247C203.687 125.646 182.999 131.853 159.489 131.853C135.98 131.853 115.292 125.646 103.292 116.247C101.105 114.534 99.2067 112.715 97.6325 110.809ZM100.16 123.672C100.147 123.877 100.141 124.08 100.141 124.282C100.141 129.369 104.323 135.956 115.569 141.735C126.407 147.305 141.923 150.98 159.489 150.98C177.056 150.98 192.572 147.305 203.409 141.735C214.656 135.956 218.837 129.369 218.837 124.282C218.837 124.08 218.831 123.877 218.819 123.672C213.342 127.625 206.756 130.865 199.571 133.356C187.951 137.386 174.165 139.671 159.489 139.671C144.813 139.671 131.027 137.386 119.407 133.356C112.222 130.865 105.636 127.625 100.16 123.672Z" fill="white"/>
<path d="M98.4036 110.172L97.6325 109.239L96.8614 110.172C94.9433 112.495 93.4746 114.963 92.5328 117.548C91.7402 119.723 91.323 121.975 91.323 124.282C91.323 134.382 99.2676 143.272 111.538 149.578C123.862 155.911 140.816 159.799 159.489 159.799C178.162 159.799 195.117 155.911 207.44 149.578C219.711 143.272 227.655 134.382 227.655 124.282C227.655 121.975 227.238 119.723 226.446 117.548C225.504 114.963 224.035 112.495 222.117 110.172L221.346 109.239L220.575 110.172C219.053 112.016 217.208 113.785 215.07 115.46C203.303 124.676 182.86 130.853 159.489 130.853C136.118 130.853 115.676 124.676 103.908 115.46C101.77 113.785 99.9258 112.016 98.4036 110.172ZM217.728 125.648C217.037 130.028 212.995 135.685 202.952 140.846C192.283 146.329 176.93 149.98 159.489 149.98C142.048 149.98 126.695 146.329 116.026 140.846C105.983 135.685 101.941 130.028 101.251 125.648C106.466 129.142 112.538 132.032 119.08 134.301C130.816 138.371 144.714 140.671 159.489 140.671C174.265 140.671 188.163 138.371 199.899 134.301C206.441 132.032 212.512 129.142 217.728 125.648Z" stroke="#E325DC" stroke-width="2"/>
</g>
<g clip-path="url(#clip0_761_18372)">
<g filter="url(#filter3_d_761_18372)">
<path fill-rule="evenodd" clip-rule="evenodd" d="M14.7796 84.3164C14.7796 85.6635 15.2835 87.2193 16.6549 88.9206C18.0498 90.6512 20.2588 92.4142 23.3351 93.9951C26.3958 95.568 30.1277 96.8634 34.3398 97.76C38.5452 98.6552 43.0852 99.122 47.6908 99.122C52.2964 99.122 56.8364 98.6552 61.0419 97.76C65.2539 96.8634 68.9858 95.568 72.0465 93.9951C75.1228 92.4142 77.3319 90.6512 78.7267 88.9206C80.0981 87.2193 80.602 85.6635 80.602 84.3164C80.602 81.651 78.4531 77.9301 72.0465 74.6377C65.8122 71.4339 57.0536 69.5108 47.6908 69.5108C38.328 69.5108 29.5694 71.4339 23.3351 74.6377C16.9285 77.9301 14.7796 81.651 14.7796 84.3164ZM13.2793 91.6414C11.4075 89.3191 10.4441 86.8301 10.4441 84.3164C10.4441 79.2399 14.3683 74.3713 21.3534 70.7816C28.3385 67.1919 37.8124 65.1753 47.6908 65.1753C57.5693 65.1753 67.0431 67.1919 74.0282 70.7816C81.0133 74.3713 84.9375 79.2399 84.9375 84.3164C84.9375 86.8301 83.9741 89.3191 82.1023 91.6414C80.2305 93.9637 77.4869 96.0738 74.0282 97.8512C70.5695 99.6287 66.4635 101.039 61.9445 102.001C57.4255 102.962 52.5821 103.458 47.6908 103.458C42.7995 103.458 37.9561 102.962 33.4371 102.001C28.9181 101.039 24.8121 99.6287 21.3534 97.8512C17.8947 96.0738 15.1512 93.9637 13.2793 91.6414Z" fill="white"/>
<path d="M17.0442 88.6069C15.7309 86.9775 15.2796 85.5294 15.2796 84.3164C15.2796 81.9264 17.2274 78.3387 23.5636 75.0825C29.7114 71.9231 38.3875 70.0108 47.6908 70.0108C56.9941 70.0108 65.6703 71.9231 71.818 75.0825C78.1542 78.3387 80.102 81.9264 80.102 84.3164C80.102 85.5294 79.6507 86.9775 78.3374 88.6069C76.9976 90.2692 74.8502 91.9921 71.818 93.5504C68.8032 95.0997 65.1144 96.3819 60.9378 97.2709C56.7685 98.1584 52.2635 98.622 47.6908 98.622C43.1181 98.622 38.6131 98.1584 34.4439 97.2709C30.2672 96.3819 26.5784 95.0997 23.5636 93.5504C20.5315 91.9921 18.3841 90.2692 17.0442 88.6069ZM9.94409 84.3164C9.94409 86.9646 10.9605 89.5613 12.89 91.9552C14.8169 94.3457 17.6221 96.4959 21.1249 98.2959C24.6294 100.097 28.7786 101.52 33.333 102.49C37.8881 103.459 42.7666 103.958 47.6908 103.958C52.6151 103.958 57.4935 103.459 62.0486 102.49C66.603 101.52 70.7522 100.097 74.2568 98.2959C77.7595 96.4959 80.5648 94.3457 82.4916 91.9552C84.4211 89.5613 85.4375 86.9646 85.4375 84.3164C85.4375 78.9618 81.3086 73.9608 74.2568 70.3369C67.1851 66.7027 57.6287 64.6753 47.6908 64.6753C37.7529 64.6753 28.1966 66.7027 21.1249 70.3369C14.073 73.9608 9.94409 78.9618 9.94409 84.3164Z" stroke="#E325DC"/>
</g>
<g filter="url(#filter4_d_761_18372)">
<path fill-rule="evenodd" clip-rule="evenodd" d="M13.6114 97.8103C12.5695 99.0208 11.7645 100.297 11.2268 101.624C10.7138 102.89 10.4441 104.201 10.4441 105.545C10.4441 116.117 27.12 124.687 47.6908 124.687C68.2616 124.687 84.9375 116.117 84.9375 105.545C84.9375 104.201 84.6678 102.89 84.1549 101.624C83.6172 100.297 82.8122 99.0208 81.7702 97.8103C80.8781 98.8468 79.8123 99.8349 78.5916 100.765C71.9003 105.863 60.5577 109.216 47.6908 109.216C34.824 109.216 23.4813 105.863 16.79 100.765C15.5693 99.8349 14.5035 98.8468 13.6114 97.8103ZM14.8409 104.716C14.7994 104.997 14.7796 105.274 14.7796 105.545C14.7796 108.367 17.0985 112.019 23.3351 115.224C29.3449 118.313 37.9493 120.351 47.6908 120.351C57.4323 120.351 66.0367 118.313 72.0465 115.224C78.2831 112.019 80.602 108.367 80.602 105.545C80.602 105.274 80.5822 104.997 80.5407 104.716C77.4537 106.935 73.7328 108.749 69.6676 110.136C63.2772 112.316 55.725 113.552 47.6908 113.552C39.6566 113.552 32.1044 112.316 25.714 110.136C21.6488 108.749 17.9279 106.935 14.8409 104.716Z" fill="white"/>
<path d="M13.9903 97.4841L13.6114 97.0438L13.2324 97.4841C12.1605 98.7296 11.3244 100.052 10.7634 101.436C10.2278 102.758 9.94409 104.133 9.94409 105.545C9.94409 111.115 14.3264 116.031 21.1249 119.525C27.9494 123.032 37.3427 125.187 47.6908 125.187C58.0389 125.187 67.4322 123.032 74.2568 119.525C81.0552 116.031 85.4375 111.115 85.4375 105.545C85.4375 104.133 85.1539 102.758 84.6183 101.436C84.0572 100.052 83.2212 98.7296 82.1492 97.4841L81.7702 97.0438L81.3913 97.4841C80.5249 98.4907 79.4854 99.4554 78.2886 100.367C71.7117 105.378 60.4884 108.716 47.6908 108.716C34.8932 108.716 23.6699 105.378 17.093 100.367C15.8962 99.4554 14.8567 98.4907 13.9903 97.4841ZM80.1012 105.632C80.0537 108.165 77.9228 111.642 71.818 114.779C65.8924 117.825 57.3695 119.851 47.6908 119.851C38.0121 119.851 29.4893 117.825 23.5636 114.779C17.4588 111.642 15.3279 108.165 15.2804 105.632C18.2632 107.654 21.7656 109.317 25.5525 110.609C32 112.809 39.6074 114.052 47.6908 114.052C55.7743 114.052 63.3816 112.809 69.8291 110.609C73.6161 109.317 77.1184 107.654 80.1012 105.632Z" stroke="#E325DC"/>
</g>
<g filter="url(#filter5_d_761_18372)">
<path fill-rule="evenodd" clip-rule="evenodd" d="M13.3884 119.303C12.3588 120.55 11.579 121.865 11.0815 123.23C10.663 124.379 10.4441 125.564 10.4441 126.774C10.4441 137.346 27.12 145.916 47.6908 145.916C68.2616 145.916 84.9375 137.346 84.9375 126.774C84.9375 125.563 84.7187 124.379 84.3002 123.23C83.8026 121.865 83.0228 120.55 81.9932 119.303C81.1202 120.36 80.0676 121.369 78.8549 122.319C72.2002 127.531 60.7278 130.973 47.6908 130.973C34.6538 130.973 23.1814 127.531 16.5267 122.319C15.3141 121.369 14.2614 120.36 13.3884 119.303ZM14.7898 126.436C14.783 126.55 14.7796 126.663 14.7796 126.774C14.7796 129.596 17.0985 133.248 23.3351 136.453C29.3449 139.542 37.9493 141.58 47.6908 141.58C57.4323 141.58 66.0367 139.542 72.0465 136.453C78.2831 133.248 80.602 129.596 80.602 126.774C80.602 126.663 80.5986 126.55 80.5918 126.436C77.5547 128.628 73.9025 130.425 69.9181 131.807C63.4741 134.041 55.8292 135.309 47.6908 135.309C39.5524 135.309 31.9075 134.041 25.4635 131.807C21.4791 130.425 17.8269 128.628 14.7898 126.436Z" fill="white"/>
<path d="M13.774 118.985L13.3884 118.518L13.0029 118.985C11.9426 120.269 11.1315 121.632 10.6117 123.059C10.1742 124.26 9.94409 125.502 9.94409 126.774C9.94409 132.344 14.3264 137.26 21.1249 140.754C27.9494 144.261 37.3427 146.416 47.6908 146.416C58.0389 146.416 67.4322 144.261 74.2568 140.754C81.0552 137.26 85.4375 132.344 85.4375 126.774C85.4375 125.502 85.2074 124.26 84.77 123.059C84.2501 121.632 83.4391 120.269 82.3787 118.985L81.9932 118.518L81.6076 118.985C80.7607 120.011 79.7349 120.994 78.5466 121.925C72.0084 127.046 60.6586 130.473 47.6908 130.473C34.7231 130.473 23.3732 127.046 16.835 121.925C15.6467 120.994 14.621 120.011 13.774 118.985ZM80.0584 127.418C79.7288 129.889 77.4864 133.095 71.818 136.008C65.8924 139.054 57.3695 141.08 47.6908 141.08C38.0121 141.08 29.4893 139.054 23.5636 136.008C17.8952 133.095 15.6529 129.889 15.3232 127.418C18.2333 129.384 21.6326 131.007 25.2997 132.279C31.8017 134.534 39.5026 135.809 47.6908 135.809C55.879 135.809 63.5799 134.534 70.082 132.279C73.7491 131.007 77.1483 129.384 80.0584 127.418Z" stroke="#E325DC"/>
</g>
</g>
<defs>
<filter id="filter0_d_761_18372" x="83.323" y="4.20142" width="152.333" height="87.0334" filterUnits="userSpaceOnUse" color-interpolation-filters="sRGB">
<feFlood flood-opacity="0" result="BackgroundImageFix"/>
<feColorMatrix in="SourceAlpha" type="matrix" values="0 0 0 0 0 0 0 0 0 0 0 0 0 0 0 0 0 0 127 0" result="hardAlpha"/>
<feOffset/>
<feGaussianBlur stdDeviation="3.5"/>
<feComposite in2="hardAlpha" operator="out"/>
<feColorMatrix type="matrix" values="0 0 0 0 1 0 0 0 0 0.8875 0 0 0 0 0.995575 0 0 0 0.52 0"/>
<feBlend mode="normal" in2="BackgroundImageFix" result="effect1_dropShadow_761_18372"/>
<feBlend mode="normal" in="SourceGraphic" in2="effect1_dropShadow_761_18372" result="shape"/>
</filter>
<filter id="filter1_d_761_18372" x="83.323" y="61.9854" width="152.333" height="67.5315" filterUnits="userSpaceOnUse" color-interpolation-filters="sRGB">
<feFlood flood-opacity="0" result="BackgroundImageFix"/>
<feColorMatrix in="SourceAlpha" type="matrix" values="0 0 0 0 0 0 0 0 0 0 0 0 0 0 0 0 0 0 127 0" result="hardAlpha"/>
<feOffset/>
<feGaussianBlur stdDeviation="3.5"/>
<feComposite in2="hardAlpha" operator="out"/>
<feColorMatrix type="matrix" values="0 0 0 0 1 0 0 0 0 0.8875 0 0 0 0 0.995575 0 0 0 0.52 0"/>
<feBlend mode="normal" in2="BackgroundImageFix" result="effect1_dropShadow_761_18372"/>
<feBlend mode="normal" in="SourceGraphic" in2="effect1_dropShadow_761_18372" result="shape"/>
</filter>
<filter id="filter2_d_761_18372" x="83.323" y="100.668" width="152.333" height="67.1306" filterUnits="userSpaceOnUse" color-interpolation-filters="sRGB">
<feFlood flood-opacity="0" result="BackgroundImageFix"/>
<feColorMatrix in="SourceAlpha" type="matrix" values="0 0 0 0 0 0 0 0 0 0 0 0 0 0 0 0 0 0 127 0" result="hardAlpha"/>
<feOffset/>
<feGaussianBlur stdDeviation="3.5"/>
<feComposite in2="hardAlpha" operator="out"/>
<feColorMatrix type="matrix" values="0 0 0 0 1 0 0 0 0 0.8875 0 0 0 0 0.995575 0 0 0 0.52 0"/>
<feBlend mode="normal" in2="BackgroundImageFix" result="effect1_dropShadow_761_18372"/>
<feBlend mode="normal" in="SourceGraphic" in2="effect1_dropShadow_761_18372" result="shape"/>
</filter>
<filter id="filter3_d_761_18372" x="2.44409" y="57.1753" width="90.4934" height="54.2822" filterUnits="userSpaceOnUse" color-interpolation-filters="sRGB">
<feFlood flood-opacity="0" result="BackgroundImageFix"/>
<feColorMatrix in="SourceAlpha" type="matrix" values="0 0 0 0 0 0 0 0 0 0 0 0 0 0 0 0 0 0 127 0" result="hardAlpha"/>
<feOffset/>
<feGaussianBlur stdDeviation="3.5"/>
<feComposite in2="hardAlpha" operator="out"/>
<feColorMatrix type="matrix" values="0 0 0 0 1 0 0 0 0 0.8875 0 0 0 0 0.995575 0 0 0 0.52 0"/>
<feBlend mode="normal" in2="BackgroundImageFix" result="effect1_dropShadow_761_18372"/>
<feBlend mode="normal" in="SourceGraphic" in2="effect1_dropShadow_761_18372" result="shape"/>
</filter>
<filter id="filter4_d_761_18372" x="2.44409" y="89.2773" width="90.4934" height="43.4092" filterUnits="userSpaceOnUse" color-interpolation-filters="sRGB">
<feFlood flood-opacity="0" result="BackgroundImageFix"/>
<feColorMatrix in="SourceAlpha" type="matrix" values="0 0 0 0 0 0 0 0 0 0 0 0 0 0 0 0 0 0 127 0" result="hardAlpha"/>
<feOffset/>
<feGaussianBlur stdDeviation="3.5"/>
<feComposite in2="hardAlpha" operator="out"/>
<feColorMatrix type="matrix" values="0 0 0 0 1 0 0 0 0 0.8875 0 0 0 0 0.995575 0 0 0 0.52 0"/>
<feBlend mode="normal" in2="BackgroundImageFix" result="effect1_dropShadow_761_18372"/>
<feBlend mode="normal" in="SourceGraphic" in2="effect1_dropShadow_761_18372" result="shape"/>
</filter>
<filter id="filter5_d_761_18372" x="2.44409" y="110.733" width="90.4934" height="43.1829" filterUnits="userSpaceOnUse" color-interpolation-filters="sRGB">
<feFlood flood-opacity="0" result="BackgroundImageFix"/>
<feColorMatrix in="SourceAlpha" type="matrix" values="0 0 0 0 0 0 0 0 0 0 0 0 0 0 0 0 0 0 127 0" result="hardAlpha"/>
<feOffset/>
<feGaussianBlur stdDeviation="3.5"/>
<feComposite in2="hardAlpha" operator="out"/>
<feColorMatrix type="matrix" values="0 0 0 0 1 0 0 0 0 0.8875 0 0 0 0 0.995575 0 0 0 0.52 0"/>
<feBlend mode="normal" in2="BackgroundImageFix" result="effect1_dropShadow_761_18372"/>
<feBlend mode="normal" in="SourceGraphic" in2="effect1_dropShadow_761_18372" result="shape"/>
</filter>
<clipPath id="clip0_761_18372">
<rect width="95.3818" height="95.3818" fill="white" transform="translate(0 57.8545)"/>
</clipPath>
</defs>
</svg>
