<svg width="16" height="16" viewBox="0 0 16 16" fill="none" xmlns="http://www.w3.org/2000/svg">
<path d="M2.10433 6.87984C1.9095 7.90322 1.98449 8.9597 2.32191 9.9453C2.65934 10.9309 3.24756 11.8117 4.02871 12.5009C4.80986 13.1902 5.75701 13.6642 6.77696 13.8763C7.7969 14.0884 8.8545 14.0312 9.84566 13.7105C9.47699 12.8585 9.07499 12.6678 8.32566 12.6892C8.23433 12.6912 8.15633 12.6958 7.98566 12.7058C6.69366 12.7838 6.05099 12.6225 5.44366 11.6992C4.76433 10.6685 4.97699 9.92317 5.79699 8.97784L5.89433 8.86584C6.50499 8.16584 6.56299 7.94717 6.11966 7.30984C5.62366 6.5965 5.34833 6.5585 4.31233 6.85517C3.33899 7.13317 2.71499 7.1945 2.10433 6.87984ZM2.51633 5.56117C2.85099 5.8165 3.14833 5.80117 3.94566 5.57317C5.46766 5.13784 6.31499 5.25584 7.21433 6.5485C8.08633 7.80184 7.86499 8.63517 6.89899 9.7425L6.80433 9.85117C6.33099 10.3978 6.28566 10.5545 6.55766 10.9665C6.82299 11.3705 7.04699 11.4265 7.90499 11.3752C8.09033 11.3638 8.17766 11.3592 8.28766 11.3558C9.56366 11.3198 10.441 11.7958 11.057 13.1638C11.869 12.6826 12.5561 12.0165 13.0623 11.2198C13.5685 10.423 13.8796 9.51811 13.9703 8.57853C14.0609 7.63895 13.9286 6.69123 13.5841 5.81239C13.2396 4.93356 12.6926 4.14841 11.9876 3.52075C11.2825 2.8931 10.4393 2.44064 9.52654 2.20017C8.61374 1.95969 7.65708 1.93797 6.7343 2.13678C5.81153 2.33559 4.94868 2.74932 4.21589 3.34434C3.48309 3.93935 2.90103 4.69888 2.51699 5.56117H2.51633ZM8.00033 15.3332C3.95033 15.3332 0.666992 12.0498 0.666992 7.99984C0.666992 3.94984 3.95033 0.666504 8.00033 0.666504C12.0503 0.666504 15.3337 3.94984 15.3337 7.99984C15.3337 12.0498 12.0503 15.3332 8.00033 15.3332Z" fill="white"/>
</svg>
